<?xml version="1.0" encoding="UTF-8"?>
<svg id="Layer_2" data-name="Layer 2" xmlns="http://www.w3.org/2000/svg" viewBox="0 0 506.44 587.89">
  <defs>
    <style>
      .cls-1 {
        fill: #848e71;
      }

      .cls-2 {
        fill: #7e896b;
      }

      .cls-3 {
        fill: #3e513d;
      }

      .cls-4 {
        fill: #838d70;
      }
    </style>
  </defs>
  <path class="cls-3" d="M0,434.12L1.3,155.68l1.71-9.75L254.12,0c16.3,5.94,30.34,17.24,45.25,26.12,44.48,26.51,89.41,52.42,133.65,79.31,24.43,14.85,48.14,31.23,73.42,44.5-.7,82.57-1,165.19-1.06,247.79l-1.35,33.7v6.74c-22.03,11.57-44.88,25.33-66.47,37.99-25.48,14.93-51.21,30.6-76.38,45.6-19.33,11.51-38.91,22.61-58.3,34.03-2.61,1.54-4.14,2.67.35,2.37-10.98,6.07-21.51,13.87-32.34,20.22-6.24,3.66-14.75,10.39-22.12,9.42-3.85-.51-23.05-13.35-28.22-16.4-1.26-.74-1.9-2.27-2.21-2.45-12.76-8.31-26.18-16.1-40.25-23.35-6.89-5.13-13.68-10.38-20.4-15.74-10.56-6.28-25.23-17.04-35.4-21.88-1.64-.78-3.18-1.29-5.03-1.03l6.73,6.06c-6.01,2.31-9.58-4.48-13.47-7.42,7.71-.57-4.43-7.06-6.85-8.65-15.37-10.09-41.26-27.04-57.84-33.14-.66-.71-.68-2.9-1.69-3.67-1.2-.9-3.75-.85-5.49-1.93-12.89-7.99-25.8-16.02-38.64-24.07Z"/>
  <polygon class="cls-2" points="443.37 427.41 251.35 541.93 57.98 425.36 252.49 311.72 443.37 427.41"/>
  <path class="cls-4" d="M273.58,95.73c.04-13.89-.58-27.95.67-41.79l195.64,117.87c-1.23,73.46-1.12,147.67-1.81,220.82-.01,1.44,2.6,2.76-1.09,2.37l-193.52-116.49-1.31-4.09c.48-42.27-.4-84.55.04-126.81.02-2.28-.86-5.99,1.37-7.4,1.48-15.26,1.48-30.09,0-44.49Z"/>
  <path class="cls-1" d="M36.39,392.32l1.56-224.92c65.02-34.42,127.2-74.09,191.61-109.63,1.4-.77,3.97-3.78,4.26-3.8,2.43-.14,1.11,3.04,1.08,3.71-1.88,50.43-.97,101.54-1.82,151.93-.38,22.7.97,45.48-.59,68.15l-196.1,114.57Z"/>
</svg>