<?xml version="1.0" encoding="UTF-8"?>
<svg id="Layer_1" data-name="Layer 1" xmlns="http://www.w3.org/2000/svg" viewBox="0 0 154.95 85.04" class="client-logo" fill="currentColor">
  <g id="gvTtPr.tif">
    <g>
      <path d="M20.05,2.42c.65.61,2.01,2.16,2.65,2.92,2.09,2.46,3.77,5.41,5.89,7.85,2.47-1.19,5-2.13,7.72-2.55.78-.12,1.62.13,2.37-.35.68-1.78,1.12-3.69,1.83-5.46.45-1.12,1.11-3,2.42-3.3,1.16-.26,2.04-.07,2.62.99.53,1.79-.49,2.34-1.15,3.62-.73,1.42-1.16,2.95-1.95,4.34.01.4,2.29.67,2.86.86,7.59,2.49,12.61,9.76,14.52,17.22.36,1.38.69,2.94.64,4.36.87.12.77-.79,1.13-1.3.86-1.2,2.9-2.33,4.39-2.07,2.03.35,3.16,2,4.07,3.65,1.56-2.39,3.81-4.84,6.82-3.1,2.35,1.36,3.21,4.79,3.84,7.32.54,2.19.71,4.49,1.36,6.65.36,1.21,1.12,3.48,2.43,3.88,2.75.17,4.16-3.12,5.01-5.32.73-1.87,1.48-7.61,4.43-6.42,1.74.7,1.24,1.82,1.43,3.15.27,1.95,1.07,6.73,2.72,7.86.41.28.91.46,1.39.5,1.93-.36,2.8-1.86,3.68-3.45,1.07-1.95,2.32-6,3.81-7.35,2.55-2.31,3.99.64,3.58,3.15.69.18.46-.16.63-.37.99-1.26,1.63-2.23,3.09-2.91,1.59-.74,2.78-1.08,4.39-.11,3.09,1.85,4.49,10.69,6.37,11.08,2.55-.37,2.89-3.15,3.77-5.02,1.85-3.91,4.88-5.92,9.14-6.6.88-.14,1.83.16,2.52-.34.39-.58.03-6.55.12-7.89.04-.61.22-1.92.35-2.51.06-.3.29-.7.52-.91,1.38-1.21,2.92-.47,3.43,1.14-.06,1.14-.2,2.27-.3,3.41-.44,4.92-.25,11.14,1.68,15.79.96,2.32,2.14,3.29,4.76,2.93,1.15-.16,1.52-.96,2.84-.23,1.69.94,1.28,3.15-.38,3.83-4.72,1.92-7.81.21-10.26-3.78-.14-.22.11-.48-.48-.37l-3.3,3.28c-2.2,1.21-4.56,2.37-7.16,1.74-1.16-.28-2.23-1.35-3.28-1.89-2.3,1.55-4.17,2.88-6.82,1.12-.89-.59-2.06-2.48-2.53-3.47-.68-1.45-2-6.34-2.99-7.02-.22-.15-.51-.3-.78-.3-.79.17-3.11,4.41-3.55,5.33-.7,1.48-1.85,6.12-3.69,6.32-2.47-.53-1.7-3.48-1.82-5.39-1.64,1.53-3.05,3.76-5.15,4.72-1.86.86-3.01.86-4.87,0-.97-.45-2.04-1.33-2.7-2.17-.78-.99-1.08-2.1-1.74-3.12-1.28,2.35-2.61,4.36-5.22,5.36-2.87,1.11-5,.62-6.95-1.79-2.92-3.63-2.75-9.89-4.21-14.09-1.34-3.85-3.03.58-3.44,2.44-.71,3.19-1.11,6.94-1.51,10.21-.12.98.33,2.84-.84,3.45-1.73.89-2.68-.83-2.85-2.31-.47-4.09.82-11.01-1.1-14.62-.95-1.78-1.97-.67-2.57.7-.99,2.26-1.73,6.57-2.08,9.07-.25,1.77-.09,4.17-.69,5.88-.2.57-1.26,1.74-1.89,1.58-1.09-.39-1.61-1.85-1.7-2.91-.06-.66.27-1.11.29-1.68.31-9.59-.54-23.05-8.16-29.88-1.39-1.25-6.77-4.49-8.46-3.3l-4.56,12.31c.21.27.35.39.7.44,1.18.17,2.76-.09,4.02-.02.49.03.92.27,1.41.3,2.97.2,6.18.11,8.84,1.74,4.27,2.62-1.02,7.25-3.79,8.58.17,2.98-.83,5.73-2.75,7.97-.98,1.14-2.27,1.93-3.27,3.04-.11.38.24.9.27,1.37.19,3.55-.35,10.67-1.95,13.79-1.15,2.23-3.14,3.41-5.66,2.39-2.36-.96-4.22-4.74-4.93-7.08-.63-2.08-.78-4.61-1.25-6.76l-.41-.46c-1.3.65-2.46.09-3.69-.02-3.81-.35-7.27-.7-10.56-2.89-.67-.45-2.05-2.02-2.66-2.2-.79-.24-2.19.04-3.11-.04-2-.17-4.48-.68-6.12-1.89-1.8-1.33-1.96-2.87-.83-4.8,1.83-3.14,6.26-4.93,9.25-6.77,2.66-5.54,6.54-10.3,10.71-14.76v-.47c-1.34-3.1-3.34-5.87-4.89-8.86-1.02-1.95-4.03-7.31-1.82-9.08.54-.43,2.35-.37,3.04-.14.36.12,2.67,1.88,3.05,2.24ZM18.7,6.63l5.29,9.43,1.25-.99-.08-.15c-2.01-2.81-3.97-5.91-6.46-8.28ZM37.01,14.35c-.49-.46-6.15,1.6-6.29,2.15l3.29,5.28.56-.57,2.44-6.86ZM32.14,27.49l-.13-.87-4.61-8.26c-.72-.21-1.21.74-1.71,1.13l-.1.38c1.22,2.4,1.72,5.25,2.27,7.89l4.28-.27ZM22.7,22.63c-1.02-.22-.96.48-1.43,1-1.56,1.74-3.8,4.22-4.88,6.27-.18.35-.38.55-.27,1.01l7.7-2.31-1.12-5.98ZM44.74,31.21l1.6,2.55c.79.3,3.23-1.49,2.13-2.13-1.22-.27-2.46-.53-3.73-.42ZM31,31.5c-3.58-.25-2.92.77-3.79,3.22-1,2.81-2.55,4.87-4.51,7.07l6.17-1.42,2.13-8.87ZM39.88,36.91l2.56-.7.25-.82c-1-1.48-2.32-3.23-4.25-3.33l1.44,4.84ZM23.56,32.93c-.41-.02-.82-.02-1.23.06-1.19.24-3.57,1.06-4.79,1.51-1.48.54-3,1.43-4.53,1.9-.4,2.03-.57,4.23-.04,6.25,4.59-1.63,9.38-4.69,10.59-9.72ZM36.15,38.64c.19-.14-.93-3.89-1.11-4.47-.12-.38-.07-.87-.61-.97l-1.15,6,2.86-.57ZM8.68,38.93c-.4-.41-3.41,1.85-3.87,2.28-1.28,1.22.4,1.51,1.45,1.7l2.42.17c.65-.44.03-1.38-.01-2-.05-.71.05-1.44,0-2.15ZM40.74,40.94c-.03.48.29,2.85.7,2.84.81-1.12,2-2.2,1.86-3.71l-2.56.87ZM140.88,40.07c-3.05-.31-6.03.61-7.86,3.16-1.52,2.12-1.82,5.64,1.7,5.13.58-.09,2.36-1.03,2.87-1.42,2.03-1.53,3.42-4.32,3.29-6.87ZM37,42.66c-.91-.29-1.5.31-2.19.5-.79.21-1.75.09-2.39.76l-.41,3.6c.31.47,1.68.06,2.22-.07.78-.19,3.37-.86,3.31-1.72l-.53-3.05ZM27.85,48.36c.3-.62.58-3.69-.14-3.71-.76.66-1.73.43-2.56.59-2.51.47-5.01,1.33-7.6,1.12-.1.58.25.7.7.88,1.24.49,3.48.68,4.87.85.29.04.54.27.59.27h4.15ZM36.15,62.37c.54-1.51.91-3.13,1.13-4.73s.42-3.52.57-5.15c.07-.72.22-1.66-.41-2.12l-5.31,1.59c.22,2.8,1,5.84,2.16,8.41.35.78.85,1.94,1.86,2Z"/>
      <path d="M68.92,59.23c.3.03,1.48.3,1.88.41,4.63,1.26,6.23,7.77,2.42,10.74-.6.46-1.64.56-1.58,1.43,1.18-.12,2.73.95,3.44,1.86,2.62,3.34,1.46,8.14-2.31,9.99-.42.21-2.42,1.02-2.7,1.02h-12.02l-.43-.43v-24.58l.43-.43c3.49.26,7.45-.35,10.87,0ZM60.76,70.09h8.16c.11,0,1.63-.86,1.85-1.01,1.34-.97,1.37-2.73,1.15-4.27-.13-.87-1.39-2.16-2.19-2.38-.22-.06-1.58-.34-1.66-.34h-7.3v8ZM60.76,81.81h7.58s.3-.23.59-.27c1.12-.18,1.85-.11,2.85-.87,1.51-1.13,1.9-3.68.96-5.25-.99-1.67-2.94-1.92-4.67-2.19-.28-.05-.55-.27-.59-.27h-6.3l-.43.43v8.43Z"/>
      <path d="M115.99,58.08v12.01c.77.05.89-.79,1.44-1.27,2.65-2.32,7.9-2.16,9.96.89.28.41,1.19,2.46,1.19,2.82v12.15h-2.86v-10.72c-.52-1.11-.23-2.14-1.28-3.01-.96-.78-2.44-1.35-3.67-1.08-2,.44-3.62,2.23-4.13,4.16-.14.52-.64,2.77-.64,3.07v7.58l-2.4-.03-.43-.43.1-25.85,2.73-.27Z"/>
      <path d="M93.67,84.67h-2.86c-.11-.47.36-1.58-.43-1.43-.58.11-1.66,1.03-2.43,1.29-3.7,1.29-8.47.21-9.39-4.06-.86-3.97,2.72-5.81,6.09-6.1,1.75-.15,4.01-.07,5.71.28,1.14-.99-.22-3.47-1.35-4.05-3.09-1.6-5.42-.36-8.33.9l-1.19-1.68.34-.89,3.12-1.4c3.3-.48,6.72-.68,9.15,1.99.39.43,1.57,2.27,1.57,2.72v12.44ZM83.57,77.01c-3.23.56-2.34,5.19,1.36,5.38,1.86.1,4.58-1.15,5.83-2.49l-.08-2.69-.33-.24c-2.11.13-4.73-.32-6.77.03Z"/>
      <path d="M101.97,61.8v5.29l.43.43h7.01c.35.97.35,1.61,0,2.57h-7.01l-.43.43v9.15c0,.13.66,1.52.85,1.73,1.72,1.95,4.47.74,6.43-.14l1,2.09c-1.42,1.63-4.36,1.83-6.42,1.63-2.47-.24-4.5-2.6-4.72-5-.27-3,.24-6.36-.02-9.41l-.24-.33-3.61-.4c-.1-.13-.11-.28-.13-.44-.42-2.9,2.02-1.6,4.01-1.86v-5.57c.72-.84,1.94-.36,2.86-.14Z"/>
      <path d="M94.15,26.69c1.12-.24,2.02.36,2.62,1.28,1.1,3.72-3.77,4.52-4.49,1.33-.23-1.03.88-2.39,1.87-2.61Z"/>
    </g>
  </g>
</svg>