<?xml version="1.0" encoding="UTF-8"?>
<svg id="Layer_1" data-name="Layer 1" xmlns="http://www.w3.org/2000/svg" viewBox="0 0 252.29 85.04" class="client-logo" fill="currentColor">
  <g id="WC97gt.tif">
    <g>
      <path d="M125.25.99l4.14,17.02c1.12.23.89-.84,1.2-1.64.88-2.27,5.59-16,6.52-16.27l2.43.81,6.1,17.1,4.43-16.32.94-.69c2.04-.07,4.64-.81,5.92,1.11-2.45,6.4-3.41,13.26-5.38,19.79-.47,1.55-3.1,9.71-3.9,9.94l-2.43-.81-6.91-17.1c-1.19.09-1.27,1.22-1.64,2.02-2.27,4.82-4.05,10.15-6.05,15.1l-3.66.78L118.83.92l6.42.08Z"/>
      <path d="M62.59,25.16c-.36.38-1.31.48-1.83.97-5.41,5.19-8.13,6.74-16.22,5.68-8.05-1.05-13.83-10.2-12.46-18.1,1.82-10.46,14.04-16.84,23.66-11.85,6.48,3.36,9.54,11.11,8.62,18.15-.12.95-1.27,4.61-1.77,5.15ZM47.96,6.77c-8.8.87-12.82,11.08-6.3,17.35,7.28,2.74,16.99,1.51,16.29-8.16-.34-4.65-5.27-9.66-9.99-9.19Z"/>
      <path d="M162.89,25.16c-2.8-2.97-2.06-12.21-.35-15.86,7.31-15.59,30.09-9.86,31.08,6.68.67,11.28-10.39,17.44-20.58,15.71-4.04-.68-5.63-2.98-8.31-5.55-.51-.49-1.47-.59-1.83-.97ZM176.3,6.75c-9.76,1.1-13.18,16.74-1.62,18.39,6.21.89,11.74-.53,12.39-7.6.51-5.55-5.16-11.43-10.77-10.8Z"/>
      <path d="M225.26.92c1.71-.37,3.53-.4,5.26-.39,2.75.03,8.7.09,11.03.76,9.59,2.76,13.29,15.08,8.94,23.51-2.73,1.46-4.63,4.51-7.4,5.79-.5.23-3.42,1.27-3.61,1.27h-14.22V.92ZM231.76,25.34l10.56-1.23c3.41-3.12,4.42-8.54,2-12.58-2.66-4.45-7.77-4.97-12.56-4.92v18.73Z"/>
      <path d="M159.05,53.03c1.71.37,5.54,4.42,5.94,6.26,1.24,5.65-.35,10.38-5.57,12.91l5.73,11.35c-.32,1.57-5.32,1.68-6.54.86s-4.48-9.24-6.04-11.04l-4.49-.8-.36,11.45c-.89,1.34-5.25,1.22-6.14-.45v-30.53h17.47ZM157.67,59.7l-9.59-.98v8.96c3.66-1.08,8.21,1.21,10.45-2.97l-.86-5.01Z"/>
      <path d="M193.57,53.03v5.7h-13.81v6.52s10.61.36,10.61.36l.77,6.15h-11.37v6.51h12.59c1.86,1.48,1.86,5.04,0,6.51h-19.09v-31.75h20.31Z"/>
      <path d="M96.89,52.21l13.82,31.34c-5.16,3.96-6.84-.83-9.45-4.37l-12.03-.14c-.65.1-.63,2.11-1.08,3.07-1.33,2.8-3.24,3.08-6.2,2.58-.77-.43-1.38-.83-1.22-1.85.33-2.02,3.91-7.37,4.95-9.71,2.42-5.45,4.35-11.25,7-16.6.88-1.78,1.85-4.46,4.21-4.32ZM99.33,73.38l-1.46-3.82-2.59-4.31c-.5,2.93-1.92,5.55-3.25,8.14h7.31Z"/>
      <path d="M26.93,28.51c-.2.29-5.52,3.06-6.15,3.19-5.32,1.12-11.44-.1-15.65-3.55-.65-.53-.82-1.45-1.32-1.97-.57-.59-1.47-.71-1.76-1.04-.55-.63-1.69-3.39-1.82-4.3C-1.42,9.59,5.66-1.01,17.72.08c2.57.23,10.19,2.8,9.24,6.02-.32,1.07-2.93,3.47-4.24,2.87C12.05,1.21,1.49,15.02,9.98,24.12c5.51,2.94,11.1-.83,15.74.51,1.36.39,1.83,2.99,1.21,3.89Z"/>
      <path d="M101.03,6.68l-.74,2.65c.98,3.89,5.36,3.94,8.28,5.53,5.2,2.83,8.3,8.42,4.14,13.72-3.4,4.33-12.5,4.25-16.93,1.54-4.37-2.67-1.42-6.23,3.12-5.58,2.93.42,5.71,3.94,8.53-.48-3.23-6.05-12.87-5.53-13.76-13.83-1.18-11.07,14.5-13.47,20.15-5.66-2.74,7.32-7.34.64-12.8,2.11Z"/>
      <path d="M79.02,53.03v5.7h-13.81v8.14h11.37l.79,2.85-1.57,3.29-10.6.37c-.39,2.25.87,9.94-.77,11.04-1.3.87-4.8.71-5.73-.86v-30.53h20.31Z"/>
      <path d="M119.64,69.72c-.54-2.48-7.58-10.31-9.11-13.66-.47-1.04-.84-1.83-.63-3.03l6.53.37,6.07,9.4c1.16.28,1.35-.71,1.9-1.36,1.87-2.23,3.68-5.71,5.12-8.3,1.95-.2,4.01-.2,5.99-.12,1.24.05,1.38-.33,1.2,1.21l-10.55,15.48v13.84c-1.47,1.87-5.03,1.87-6.5,0v-13.84Z"/>
      <path d="M89.59.92v5.7s-7.31,0-7.31,0v24.02c-1.49,2.04-4.21,1.04-6.5,1.22V7.84c-1.39-2.51-6.5-.11-7.76-1.99-.74-1.76-.74-3.82.86-4.93h20.72Z"/>
      <path d="M207.38,25.34h11.37c.93,2.53.93,3.99,0,6.51h-17.87V.92c2.29.18,5.01-.82,6.5,1.22v23.21Z"/>
      <path d="M213.07,51.4c2.8-1.56,4.31-5.83,8.12-4.07.65,4.16-3.8,3.5-5.68,6.11,1.54,2.09,8.39,1.05,7.3,4.88-.92,3.23-7.62-2.34-8.93-1.21l1.68,6.1-1.28,2.03c-.76-.14-1.73.55-2.01-.5-.67-2.53-1.09-5.01-.83-7.64l-6.9,5.7-1.13-2.75,5.59-5.39-6.82-1.65-.49-2.01,1.86-1.1,6.26,2.32c-.32-2.67-1.16-4.94-.81-7.73.09-.7,1.54-.55,2.03-.41,1.72.49,1.09,5.6,2.04,7.32Z"/>
    </g>
  </g>
</svg>