<?xml version="1.0" encoding="UTF-8"?>
<svg id="Layer_1" data-name="Layer 1" xmlns="http://www.w3.org/2000/svg" viewBox="0 0 416.71 83.75" class="client-logo" fill="currentColor">
  <g id="_3yMdpY.tif" data-name="3yMdpY.tif">
    <g>
      <path d="M294.85,78.43c-.12.58-1.78,3.16-2.32,3.48-2.78.75-12.85,1.83-13.84-1.33l1.07-68.35,13.41,1.71,31.86,39.53V14.58c3.69-3.49,10.28-1.07,15.09-1.74v69.65c-4.58-.3-9.93,1.17-13.91-1.76l-29.61-37.72c-2.19-3.13-1.76,2.26-1.76,2.92,0,8.24,1.44,25.63,0,32.5Z"/>
      <path d="M275.11,82.48l-16.23-.59c-4.93-2.2-4.5-13.24-7.72-14.33l-24.09-.23c-3.51,15.29-7.24,16.49-22.76,15.16l26.66-70.33c5.54,1.57,14.36-1.33,17.99,3.05l26.15,67.28ZM248.42,54.63c-3.88-7.1-5.91-15.34-8.14-23.21-5.34,6-5.07,16.19-9.27,23.21h17.41Z"/>
      <path d="M393.39,67.54l-24.67.02c-2.54.86-3.2,8.57-4.89,11.36-3.79,6.23-12.78,2.73-19.05,3.57l27.78-70.21c4.66,1.53,14.58-1.16,17.56,2.24l26.6,66.24c-.06,2.7-14.61,1.99-17.41,1.18l-5.92-14.39ZM388.88,54.63l-8.71-24.39-7.55,24.39h16.25Z"/>
      <path d="M155.56,14.58c0-.45-2.16-1.22.6-2.9l44.13,1.09c5.12,19.79-15.69,11.17-27.32,12.83v15.1h19.16c.25,0,1.31-1.74,1.73-1.16v13.93s-20.88,0-20.88,0v15.09h22.64c4.93,0,6.06,10.3,5.22,13.93h-44.69l-1.49-1.74c-.03-.47.91-.87.91-1.16,0-21.66.3-43.35,0-65Z"/>
      <path d="M99.4,21.7c9.62-9.82,22.77-12.08,36.48-9.49,6.82,1.29,19.44,7.84,10.33,15.07-6.79,5.39-13.34-1.77-20.24-1.76-25.96.01-25.14,45.04,1.13,43.07,9.71-.73,12.76-11.19,22.64,2.87-15.42,19.66-51.41,13.38-58.62-11.01-4.2-14.21-2.01-28.25,8.29-38.76Z"/>
      <path d="M27.13,62.34c4.04,4.38,11.5,7.56,17.57,7.47,25.58-.37,29.81-38.01,11.03-51.15,11.78.13,27.02,2.99,28.92,16.92,3.92,28.85-15.49,49.99-44.57,48.05-7.15-.48-24.82-6.77-26.06-14.56-1.5-9.45.28-21.87,6.31-29.5l2.93,16.78c.65,1.87,2.52,4.53,3.87,6Z"/>
      <path d="M75.98,15.86c.37.48,1.7.65,1.82,1.04,1.83,5.62-3.63,1.13-5.2.53C45.13,6.93,15.67,23.1,10.76,52.03c-.6,3.53.1,6.93-.29,10.17-.2,1.63-.67,3.36-2.31,1.71-5.75-14.18-5.75-26.06-.23-40.26,1.07-2.75,4.59-5.01,3.77-8.86L.02,9.34C-.53,2.36,11.29.21,16.81.02c7.54-.26,14.22,2.46,21.09,3.14,2.91.29,7.12-.98,11.3-.61,10.11.88,20.52,5.28,26.77,13.32Z"/>
    </g>
  </g>
</svg>