<?xml version="1.0" encoding="UTF-8"?>
<svg id="Layer_1" data-name="Layer 1" xmlns="http://www.w3.org/2000/svg" viewBox="0 0 285.54 68.45" class="client-logo" fill="currentColor">
  <path d="M0,.12h193.76s0,66.29,0,66.29h91.78s0,2.04,0,2.04H0v-2.04c37.56.3,75.16-.38,112.73-.05,2.51.02,4.53,1.09,7.05,1.11,23.06.23,46.34.42,69.39-.05,1.24-.03,3.8.76,3.57-1.02h-76.48V1.14H0V.12ZM165.2,5.22c-3.37.28-7.25-.5-10.52.19-1.07.23-10.02,4.3-11.28,5.04-4.35,2.55-5.91,5.7-3.48,10.36,3.29,6.3,7.16-.74,12.02-.29v39.77l11.23-.5,2.03-2.05V5.22Z"/>
  <path d="M285.54.12v1.02c-28.7-.25-57.46.34-86.17,0-1.16-.01-4.59.43-4.59-.51.81-1.02,3.26-.49,4.59-.51,28.71-.34,57.47.25,86.17,0Z"/>
  <path d="M45.89,4.2v28.55c6.15-4.98,14.38-19.95,23.51-16.88,4.88,1.64,9.19,16,14.21,18.92,1.12-3.9,2.79-8.64,4.58-12.25,1.89-3.8,2.65-5.71,7.12-6.14,1.08-.1,5.66-.29,5.65.55l-19.53,43.69c-2.53,3.73-5.61,3.89-9.61,2.74-.99-.28-2.01.49-1.41-1.52.79-2.64,8.32-14.86,8.03-16.22l-12.13-18.53c-1.19-1.27-1.68-.2-2.59.52s-5.37,5.15-5.51,5.75l10.02,16.29c.5,3.17-5.4,2.7-7.37,2.25-6.62-1.48-10.08-14.04-14.98-18.16v15.81c-2.23,2.48-5.39,3.01-8.56,2.43l-1.64-1.41V8.79c0-.18,1.65-2.74,2-3.1,2.36-2.4,5.07-1.34,8.2-1.49Z"/>
  <path d="M31.62,16.44c.77,5.93-1.36,9.7-7.68,9.22-3.72-.28-6.54-2.17-10.68-.04-.26,1.4.35,2.45,1.69,2.89,7.31,2.43,19.67.65,18.76,12.93-.98,13.18-20.25,11.33-29.61,9.64l.14-5.43c3.49-5.84,9.78-2.17,15.69-2.66,3.98-.33,5.21-2.7.96-4.11-6.39-2.11-17.2-1.28-17.88-10.7-.78-10.8,11.33-13.42,19.97-12.8,2.78.2,5.55,1.74,8.64,1.05Z"/>
  <path d="M248.01,50.91c-.75-1.35-1.12-2.8-1.26-4.35-.58-6.45-.54-18.07-.01-24.56.53-6.55,8.84-5.92,13.75-5.49,7.62.65,15.55,3.43,18.43,11.15,7.38,19.76-15.13,28.44-30.91,23.26ZM254.95,43.97c7.45.71,16.39-.43,16.39-9.69s-9.2-10.17-16.39-9.69v19.38Z"/>
  <path d="M210.07,18.99c2.14-2.44,5.07-2.83,8.16-2.55v13.26h15.3l.49-10.22c2.24-2.7,5.28-3.41,8.69-3.04v33.14c-1.49,2.13-7.18,3.93-8.72,1.58l-.46-13.31h-15.3l-.47,12.28-7.69,2V18.99Z"/>
</svg>