<?xml version="1.0" encoding="UTF-8"?>
<svg id="Layer_1" data-name="Layer 1" xmlns="http://www.w3.org/2000/svg" viewBox="0 0 289.09 85.04" class="client-logo" fill="currentColor">
  <g id="r8hRMF.tif">
    <g>
      <path d="M59.45,0v85.04H0V0h59.45ZM50.83,8.62H8.77v67.79h42.05V8.62Z"/>
      <path d="M289.09,48.57v.3l-1.6,3.33c-10.16-5.79-16.56,5.36-13.04,14.42,2.16,5.57,7.89,7.63,13.05,4.52.21.02,1.57,3.66,1.42,3.9-3.55,2.06-7.36,2.5-11.29,1.27-10.78-3.38-12.78-19.3-4.8-26.52,4.33-3.92,11.48-4.86,16.26-1.21Z"/>
      <path d="M180.7,46.76c9.53.97,9.58,13.39,2.36,17.47l5.81,11.88,10.07-29.34,4.3-.03,9.6,29.67h-5.67l-2.49-7.95-8.56-.08-2.79,7.96-10.19.08-4.79-11.2h-2.12v11.2h-5.29v-29.66h9.76ZM176.09,61.43c2.12.05,4.27-.22,5.66-1.98,1.51-1.92,1.63-5.84-.29-7.55-.3-.27-1.64-1.06-1.96-1.06h-3.4v10.59ZM203.77,64.61l-3.33-11.35-3.18,11.35h6.5Z"/>
      <polygon points="80.48 8.47 94.55 29.2 94.55 8.47 98.78 8.47 98.78 38.13 95.08 38.13 86.71 26.23 80.93 17.4 80.93 38.13 76.55 38.13 76.55 8.47 80.48 8.47"/>
      <path d="M197.26,29.05V8.47h4.39v29.66h-3.93l-7.14-10.33-6.93-10.55v20.88h-4.24V8.47h3.71c4.92,6.72,9.54,13.65,14.14,20.58Z"/>
      <path d="M162.44,7.91c16.98-1.73,18.7,26.81,4.42,30.3-18.67,4.56-20.99-28.6-4.42-30.3ZM163.04,12.3c-9.72,1.13-7.75,25.99,3.21,21.52,6.6-2.69,6.89-22.69-3.21-21.52Z"/>
      <path d="M128.25,46.2c17.63-1.63,18.67,30.57.99,30.77-15.81.18-16.92-29.29-.99-30.77ZM129.01,50.58c-10.01.55-8.5,25.26,2.33,21.7,7.08-2.32,7.4-22.24-2.33-21.7Z"/>
      <polygon points="239.32 46.76 239.32 58.11 249.76 58.11 249.76 46.76 254.9 46.76 254.9 76.41 249.76 76.41 249.76 62.19 239.32 62.19 239.32 76.41 234.18 76.41 234.18 46.76 239.32 46.76"/>
      <path d="M166.4,74.98c-.2.66-5.72,1.78-6.6,1.87-11.23,1.16-17.99-8.39-15.9-18.93,1.95-9.8,12.67-14.93,21.27-9.48l.02.19-1.61,3.41c-2.7-1.23-5.22-1.94-8.16-1.06-7.17,2.16-7.91,13.5-3.63,18.62,2.3,2.75,6.02,3.98,9.31,2.19v-9h5.29v12.18Z"/>
      <path d="M90.46,72.03v-9.23h5.29v12.41c-2.15.69-4.33,1.41-6.6,1.65-11.96,1.24-18.77-9.9-15.38-20.68,2.75-8.74,13.23-12.99,20.88-7.53l-1.73,3.39c-1.01-.3-1.89-.87-2.93-1.12-9.83-2.4-13.63,8.77-10.27,16.32,1.92,4.3,6.15,6.51,10.72,4.79Z"/>
      <path d="M124.05,38.13h-5.9l-2.26-7.95-8.69-.08-2.51,8.03h-4.69l10.51-29.67c1.17.17,2.84-.2,3.94,0,.18.03.29.06.35.25l9.25,29.41ZM114.97,26.33l-3.1-11.35-3.25,11.35h6.35Z"/>
      <path d="M202.86,38.13l10.21-29.51,4.37-.16,9.47,29.67h-5.9l-2.26-7.95-8.69-.08-2.51,8.03h-4.69ZM217.84,26.33l-3.1-11.35-3.25,11.35h6.35Z"/>
      <path d="M219.65,65.22v10.97l-.23.23h-5.07v-29.66h9.76c.31,0,1.69.37,2.08.5,6.81,2.15,6.9,11.7,1.85,15.84-.95.78-3.49,2.12-4.69,2.12h-3.71ZM219.65,61.43c2.39-.02,4.6-.25,5.93-2.47,1.13-1.88,1.17-5.5-.56-7.06-.25-.23-1.72-1.06-1.97-1.06h-3.4v10.59Z"/>
      <polygon points="113.91 46.76 113.91 50.84 105.44 50.84 105.44 58.86 113.76 58.86 113.76 62.72 113.53 62.95 105.44 62.95 105.44 72.33 115.42 72.33 115.42 76.41 100.14 76.41 100.14 46.76 113.91 46.76"/>
      <polygon points="141.59 8.47 141.59 12.56 133.88 12.56 133.88 38.13 128.74 38.13 128.74 12.56 120.87 12.56 120.87 8.47 141.59 8.47"/>
      <polygon points="233.42 8.47 233.42 34.05 243.4 34.05 243.4 38.13 228.28 38.13 228.28 8.47 233.42 8.47"/>
      <rect x="143.11" y="8.47" width="5.29" height="29.66"/>
      <rect x="259.59" y="46.76" width="5.29" height="29.66"/>
    </g>
  </g>
</svg>