<?xml version="1.0" encoding="UTF-8"?>
<svg id="Layer_1" data-name="Layer 1" xmlns="http://www.w3.org/2000/svg" viewBox="0 0 403.93 85.04" class="client-logo" fill="currentColor">
  <g id="OPY3rs.tif">
    <g>
      <path d="M38.21,56.84l7.84-9.22c7.26-.96,15.18.82,21.48-3.89,9.15-6.84,10.35-21.25,2.13-29.26-1.17-1.14-6.98-4.85-8.27-4.85h-17.06v7.87c-2.07-2.83-7.94-5.26-9.68-7.37s-.41-7.27-.82-10.11h29.3c1.02,0,10.69,4.42,12.12,5.38,16.96,11.34,13.74,39.96-4.67,48.41-1.47.67-8.96,3.05-10.07,3.05h-22.31Z"/>
      <path d="M1.48,27.11c2.85,3.04,5.08,6.25,8.32,1.75l-1.87-2.5-2.95.76c-2.56-6.06,2.53-10.99,8.3-12.26l-1.3,2.63,4.37.43-3.49,1.32,1.82,1.39-.08,5.59-2.62.43-1.75,3.08c3.37-.43,4.14-3.31,7.87-1.75v-6.12s2.2.87,2.2.87l.43-2.62,1.66,2.08-1.66,3.16,3.52-.36,4.32-9.61-5.21-3.58,6.16.83c17.05,5.62,21.52,24.2,9.58,37.65-4.53,5.1-13.02,7.26-19.63,6.5C6.52,55.28-3.99,39.4,1.48,27.11ZM35.59,22.74h-1.74s-.87,4.37-.87,4.37c1.89-.79,3-2.32,2.62-4.37ZM25.09,27.11c-1.86-.08-3.27-.35-4.36,1.31,1.36,1.86,2.99,1.85,4.36,0v-1.3ZM18.09,29.73h-1.75s0,1.74,0,1.74l2.19.87.43-.43-.87-2.19ZM34.72,34.98l1.72-.03-3.03-5.21-1.31,2.62,1.75-.49.87,3.11-11.84.57-2.6-3.19-5.69,6.11,2.17,1.74,3.01-.82,1.33,2.43,4.31-.7,1.12-1.77c2.65-.39,8.06-1.22,8.18-4.37ZM17.22,33.23h-1.75v.87h1.75v-.87ZM6.29,34.1c-.57,0-.57.87,0,.87s.57-.87,0-.87ZM5.85,37.59l-2.06.74-2.31-1.61,1.87,5.13,2.5.12v-4.38ZM10.22,45.47l-1.75-4.37c-1.44-.32-.45,1.18-1.39,1.81-.7.46-2.08.69-2.98.82l.88,2.62c3.08.53.23-1.45,2.18-2.62l.57,1.57,2.49.17ZM10.22,47.22h-1.75v1.74h1.75v-1.74ZM29.47,48.09h-1.74s-.88,3.5-.88,3.5h3.5s-.88-3.5-.88-3.5ZM10.66,49.84c-.57,0-.57.87,0,.87s.57-.87,0-.87Z"/>
      <path d="M324.25,39.35h-31.49c.24,6.15,7.66,10.92,13.33,10.33,4.32-.45,6.98-3.21,10.63-5.04l5.75,5.56c-6.37,8.09-18.47,9.61-27.68,5.93-17.69-7.07-17.01-35.44,1.24-41.93,17.31-6.16,30.56,8.19,28.23,25.15ZM313.75,31.48c-1.67-13.1-19.34-12.9-20.99,0h20.99Z"/>
      <path d="M229.18,51.89c-.32.31-.27,1-.87,1.44-7.08,5.21-18.72,6.14-26.55,2.22-17.41-8.72-15.38-34.89,2.65-41.14,24.1-8.36,43.61,19.19,24.77,37.47ZM211.17,22.03c-11.45,1.75-14.76,17.29-5.46,24.33,8,6.05,18.72,1.1,20.38-8.51,1.44-8.34-6.36-17.13-14.93-15.82Z"/>
      <path d="M372.28,14.06l9.7,30.53,10.32-27.74.19-2.85c3.33.08,6.72-.15,10.06,0,1.2.05,1.64-.33,1.24,1.25-2.78,11.11-10.46,23.26-13.5,34.61-3.87,6.21-7.1,23.27-14.39,25.84-2.55.9-12.2,2.14-14.09.88l-.83-8.36c10.1,1.71,13.43-2.91,15.81-11.8l-15.81-42.41,11.3.07Z"/>
      <path d="M142.31,17.49l-3.54,7.84c-5.39-2.05-9.88-4.62-16-3.34l-1.06.69c-7.11,5.63,12.08,9.57,15.11,11.23,2.37,1.3,5.94,4.94,6.35,7.65,2.01,13.53-9.18,17.25-20.56,16.18-3.28-.31-11.41-3.28-13.58-5.69-.95-1.06-.72-.76-.13-1.9s3.24-5.32,4.19-5.52c5.64,3.25,16.51,9.01,20.53,1.27.47-4.99-10.85-6.47-14.65-8.13-2.32-1.01-5.39-2.45-6.8-4.57-3.76-5.64-1.58-14.22,4.17-17.63,8.58-5.09,17.65-1.64,25.98,1.93Z"/>
      <path d="M154.82,53.04c-2.87-2.32-6.71-8.5-7.22-12.42-.9-6.99.04-13.53,4.32-19.2,8.27-10.98,27.05-11.41,35.87-.86l-5.74,6.52c-2.3.68-3.74-2.67-5.86-3.66-3.59-1.68-7.5-1.78-11.16-.26-12.52,5.22-8.15,29.15,8.81,25.42,3.89-.86,5.13-3.2,8.19-4.82,1.08,1.43,6.62,5.01,5.37,6.98-6.04,9.46-24.51,8.82-32.58,2.31Z"/>
      <polygon points="248.1 14.04 259.08 44.6 270.06 14.03 281.39 13.99 263.8 57.62 253.81 56.86 236.78 13.99 248.1 14.04"/>
      <path d="M331.25,13.99h10.5s0,6.12,0,6.12c3.46-3.3,7.58-4.43,11.96-6.01l1.59.76,3.06,7.88c-5.04.87-11.53,3.53-14.17,8.14-.56.98-2.45,5.64-2.45,6.29v19.67h-10.5V13.99Z"/>
      <rect x="91.57" y="13.99" width="10.5" height="42.85"/>
      <path d="M286.64,69.08c5.83-.84,6.87,6.5,11.37,8.74l-.87-8.74h4.37s0,14.42,0,14.42c0,.28-1.46,1.64-2.2,1.35l-9.16-9.65v9.62s-3.5,0-3.5,0v-15.74Z"/>
      <path d="M271.77,69.08v13.55c0,.11,1.62,1.67-.44,2.18-3.62.89-7.22-7.9-10.05-9.62v9.62s-3.5,0-3.5,0v-15.74c5.57-.77,7,5.98,10.94,8.74l-.34-7.32c.67-1.57,1.84-1.56,3.4-1.41Z"/>
      <polygon points="200.91 69.08 204.41 69.07 204.89 75.2 210.54 75.2 210.54 69.07 214.03 69.08 214.03 84.82 210.54 84.82 210.06 78.69 204.41 78.69 204.41 84.82 200.91 84.82 200.91 69.08"/>
      <path d="M327.75,69.08v3.5c-1.63-1.14-8.14-1.67-8.74.44-.14.48-.32,2.18.44,2.18h7.44s0,3.49,0,3.49h-7.88s0,2.62,0,2.62l8.77.42c2.04,2.09-.02,2.96-2.17,3.12-1.96.14-9.83.49-9.97-1.32,1.2-4.3,1.31-10.21-.13-14.45h12.25Z"/>
      <path d="M244.65,84.81l-3.53-.4-2.25-2.99-5.93-.14-1.48,3.46-3.41.08,6.18-15.67,2.9.03,7.53,15.64ZM236.77,74.32h-1.74s-.88,3.49-.88,3.49h3.5s-.88-3.49-.88-3.49Z"/>
      <path d="M177.47,72.76c-.17.17-1.76,3.61-1.79,3.89-.49,3.99,6.25,7.23,9.05,3.05l2.18,3.36c-4.7,2.29-9.66,3.42-13.13-1.3-6.55-8.91,5.43-17.32,13.12-10.5l-2.29,2.1c-1.24.29-4.46-3.31-7.15-.61Z"/>
      <path d="M346.12,69.08v12.24c3.49.21,8.52-1.47,7.87,3.5h-11.37s0-15.74,0-15.74h3.5Z"/>
      <path d="M24.22,20.11c-2.05.25-2.25-.76-2.13-2.47l-1.68.54-2.31-2.43c3.3,1.14,8.01-.95,6.12,4.37Z"/>
      <path d="M22.47,12.25l-1.31,1.74c-.45-.47-1.66-1.42-1.31-1.74h2.62Z"/>
      <polygon points="18.97 12.25 17.23 13.99 17.22 12.24 18.97 12.25"/>
      <rect x="16.35" y="22.74" width=".87" height="1.74"/>
    </g>
  </g>
</svg>