<?xml version="1.0" encoding="UTF-8"?>
<svg id="Layer_1" data-name="Layer 1" xmlns="http://www.w3.org/2000/svg" viewBox="0 0 56.06 83.39" class="client-logo" fill="currentColor">
  <path d="M34.21,26.64c16.89,2.64,26.38,24.37,19.69,39.39-4.53-24.54-23.48-25.39-44.6-24.91-1.22-.59-7.53-12.16-8.08-13.93-1.05-3.34,1.63-.56,1.72-.56,8.9,0,23.19-1.26,31.27,0Z"/>
  <path d="M26.68,83.39C11.87,81.6-1.85,69.92.2,54.02l1.73-1.74h12.42c3.72,6.55,4.36,11.34,12.32,14.32v16.79Z"/>
  <path d="M28.99,83.39v-16.79c8.78-4.07,12.95-9.76,8.11-19.11,20.89,9.02,14.72,34.92-8.11,35.9Z"/>
  <polygon points="25.52 0 18.57 23.17 1.2 23.17 8.15 0 25.52 0"/>
  <path d="M51,0v15.06h-26.64c.81-5,2.4-10.92,5.21-15.06h21.43Z"/>
</svg>