<?xml version="1.0" encoding="UTF-8"?>
<svg id="Layer_1" data-name="Layer 1" xmlns="http://www.w3.org/2000/svg" viewBox="0 0 201.79 85.04" class="client-logo" fill="currentColor">
  <g id="U0O33F.tif">
    <g>
      <path d="M0,.82l36.86-.13v10.01c-3.23,1.5-5.9,3.72-7.69,6.83-4.78,8.3-1.97,17.29,2.42,25.05.1.17.21.32.36.44,2.65-2.37,5.35-4.73,8.39-6.6-.98-4.26-4.9-9.6-.72-13.28,1.55-1.36,4.02-1.9,6.01-1.45,2.22.51,3.54,2.86,4.57,4.71,2.24,4.04,3.79,8.39,5.36,12.72.17.12.92-.7,1.08-.87,7.85-8.31,4.12-23.08-5.87-27.74l-3.28-1.16V.68c12.22-.09,24.44-.07,36.66-.13C111.93.42,139.74.16,167.54,0c11.38-.06,21.85.04,28.51,10.77,5.78,9.3,5.76,28.68,5.73,39.58-.03,12.24.52,23.35-11.05,30.63-7.82,4.92-15.35,4.01-24.13,3.97-37.02-.17-73.99-.02-110.98-.54-2.58-.04-5.16.04-7.74,0v-8.2c1.38-.23,2.73-.79,3.89-1.56,3.13-2.07,5.4-4.86,6.9-8.3,4.28-9.82-.36-18.4-4.22-27.28-1.87-4.3-3.15-9.29-5.47-13.35-1.61-2.81-3.99-4.14-7.2-2.71-4.26,1.89-2.92,5.71-1.7,9.19,3.31,9.49,8.66,17.11,8.76,27.69,0,1.07-.47,2.29-.82,3.29-.23.03-.13-.31-.13-.47-.08-2.27.04-4.26-.31-6.55-.29-1.89-1.23-6.16-1.97-7.84-.06-.13-.08-.24-.21-.32-2.28,1.79-4.91,3.39-6.45,5.92-1.83,3.03-1.94,6.62-1.83,10.07l-.9-2.12c-.63-2.23,0-4.5.88-6.57,1.61-3.77,4.41-5.93,7.7-8.19l-3.91-9.73c-.34-.26-5.33,3.59-5.92,4.1-7.41,6.33-13.87,15.66-8.13,25.46,2.3,3.92,5.88,7.59,10.27,9.03l-.12,8.45-18.5-.14c-3.73-.43-7.61-.91-10.92-2.8C1.41,77.96.17,70.31.14,63.78l-.14-.33V.82ZM99.11,7.98c-1.39.19-1.3,1.09-1.18,2.32.05.59.24,1.03.89,1.13,1.62.25,2.62,0,2.6-1.79-.02-1.54-.88-1.85-2.3-1.66ZM138.56,8.75h-2.96v17.07h2.96V8.75ZM82.53,9.69h-7.74v13.1c0,1.01,1.07,2.22,1.98,2.59,1.4.56,5.2.63,6.63.23,3.09-.87,3.87-4.61,2.29-7.12l-1.34-1.14c2.67-1.28,2.45-5.8-.11-7.09-.34-.17-1.36-.53-1.71-.58ZM118.92,10.9h-3.09v2.42h-1.21v2.42h1.21v7.46c0,.52,1.08,1.91,1.57,2.2.11.07,1,.42,1.06.42h2.56l.2-.2v-2.35c-.53,0-2.08.11-2.26-.5l-.16-7.03h2.15v-2.22c-.51-.42-1.38-.11-2.02-.2v-2.42ZM91.14,12.92h-2.22v12.9h2.96v-9.14c1.15-.56,2.33-1.12,3.63-.81l.66-2.87c-.62-1.18-4.2,1.14-4.42.99l-.61-1.07ZM113,17.08c.15-2.14-.9-3.83-3.06-4.27-3.46-.71-7.36,1.11-6.13,5.18.37,1.23,1.13,1.87,2.35,2.22,1.64.48,4.4-.03,4,2.44-.24,1.48-4.49,1.25-4.03-.87h-2.82c.16,1.35.18,2.41,1.34,3.3,1.55,1.18,5.28,1.17,6.91.18,1.92-1.17,2.15-4.09.83-5.76-1.44-1.82-5.11-1.2-5.64-2.29-1.2-2.46,4-2.74,3.56-.13h2.69ZM127.23,12.69c-4.47.39-4.99,4.48-4.66,8.21.35,3.99,2.51,5.62,6.49,5.18,3.27-.36,4.21-2.75,4.38-5.7.27-4.54-.98-8.14-6.21-7.69ZM101.16,13.32h-3.09v12.5h3.09v-12.5ZM137.05,33.11c-1.3.2-1.29,1.19-1.19,2.32.06.59.24,1.03.89,1.13,1.64.26,2.63.01,2.6-1.79-.03-1.54-.87-1.88-2.3-1.66ZM108.83,33.88h-2.96v17.07h2.96v-17.07ZM78.02,34.82h-3.23v16.13h3.23v-16.13ZM103.58,42.48c-.02-3.22-2.35-4.88-5.45-4.7-4.71.27-5.07,4.61-4.77,8.4.33,4.12,3.39,6,7.34,4.78,2.48-.77,2.97-2.41,2.88-4.85h-2.62c-.4.53-.05,1.52-.67,2.02-.76.61-2.86.53-3.42-.36-.66-1.05-.65-4.35-.36-5.57.25-1.09.58-1.51,1.75-1.61,1.42-.12,2.61.24,2.49,1.89h2.82ZM130.89,42.22h2.49c.13-.1.17-.14.18-.3.01-.45-.21-1.45-.4-1.9-1.4-3.39-8.49-2.8-8.98.93-.24,1.8.33,3.64,2.14,4.29,1.06.38,3.73.36,4.22,1.29s.15,1.97-.94,2.13c-1.19.17-3.06.1-2.9-1.51l-.18-.23h-2.62c-.31,3.72,2.95,4.44,5.98,4.16,3.31-.3,5.06-3.57,3.14-6.36-1.34-1.94-4.97-1.24-5.69-2.24-.56-.77-.21-1.71.71-1.98,1.38-.4,2.87.07,2.86,1.71ZM163.04,45.17v-3.29c0-2.55-2.64-4.1-4.91-4.1-4.63,0-5.82,3.27-5.59,7.33.18,3.09,1.06,5.74,4.53,6.09s6.15-.98,5.97-4.69h-2.69c-.26,1.77-1.65,2.21-3.24,1.82-1.43-.35-1.53-1.93-1.47-3.17h7.4ZM91.48,50.95v-9.61c0-.57-.77-1.99-1.21-2.42-2.17-2.12-3.99-.27-6.19.61l-.54-1.48h-2.42v12.9h3.09v-9.14c1.16-.11,2.58-1.52,3.7-.68.15.11.47.6.47.74v9.07h3.09ZM114.34,38.05h-3.09v8.67c0,.66.33,1.97.67,2.56.51.89,1.75,1.73,2.78,1.8s2.83-1.32,3.89-1.57l.8,1.45h2.22v-12.9h-3.09v8.67c-.6.27-2.21,1.42-2.74,1.41-.67-.02-1.43-.91-1.43-1.54v-8.53ZM143.94,38.05h-3.23l4.24,12.77,2.29.14,4.37-12.91h-3.03l-2.42,8.07-2.22-8.07ZM139.1,38.45h-3.09v12.5h3.09v-12.5ZM96.15,58.24c-1.08.15-1.31.7-1.3,1.76.02,1.66.96,1.9,2.46,1.68.98-.14,1.09-.8,1.1-1.69.02-1.61-.73-1.96-2.27-1.76ZM134.63,58.24c-1.08.15-1.31.7-1.3,1.76.02,1.66.96,1.9,2.46,1.68.98-.14,1.09-.8,1.1-1.69.02-1.61-.73-1.96-2.27-1.76ZM92.15,76.08v-16.87l-.2-.2h-2.89v17.07h3.09ZM123.63,64.66v-5.44l-.2-.2h-2.89v14.31c0,.56.81,1.74,1.28,2.08,1.41,1.05,5.91.98,7.32-.08,2.22-1.66,2.28-6.76,1.72-9.22-.42-1.86-1.78-3.18-3.8-3-.53.05-3.31,1.7-3.43,1.55ZM86.77,65.47c.65-6.17-8.86-7.71-11.19-2.65-1.03,2.24-1.12,7.57-.27,9.86,1.21,3.27,5.05,4.31,8.15,3.12,2.55-.99,3.37-3.48,3.45-6.03h-3.09c-.09,1.39-.46,3.26-2.1,3.48-1.05.14-2.54-.02-3.13-1.02-.77-1.29-.75-6.33-.28-7.77.5-1.54,1.91-1.88,3.41-1.68s1.66,1.54,2.16,2.68h2.89ZM103.52,63.18h-2.22v12.9h3.09v-9.14c1.04-.13,2.63-1.77,3.42-.39.08.13.35,1.03.35,1.13v8.4h2.96v-8.94c.72-.36,2.69-1.54,3.38-.95.13.12.39.68.39.82v9.07h3.09v-9.61c0-.35-.52-1.74-.75-2.07-1.9-2.8-4.64-.42-6.98.27-.57-1.13-1.71-1.9-3-1.52-.5.15-2.74,1.51-2.93,1.49l-.8-1.46ZM149.86,76.08v-9.61c0-.63-.74-1.97-1.21-2.42-2.15-2.1-4.01-.28-6.19.61l-.54-1.48h-2.42v12.9h3.09v-8.94c.97-.46,2.69-1.64,3.7-.88.15.11.47.6.47.74v9.07h3.09ZM161.97,63.05c-.58-.11-1.14.12-1.68.14-4.45.15-8.31-1.16-8.69,4.76-.14,2.13.02,5.71,2.26,6.76.38.18,1.46.47,1.85.45.48-.03,3.15-1.79,3.29-1.62-.16,1.39.34,3.56-1.55,3.76-1,.11-2.19.03-2.35-1.15-.21-.17-.41.08-.48.08h-2.22c-.4,4.2,6.87,4.74,8.8,2.01.15-.21.75-1.51.75-1.67v-13.51ZM98.2,63.59h-3.09v12.5h3.09v-12.5ZM136.68,63.59h-3.09v12.5h3.09v-12.5Z"/>
      <path d="M78.02,18.83h3.7c.09,0,.75.26.87.34.82.54.84,2.69.13,3.35-.55.51-3.65.5-4.23.08-.11-.08-.47-.53-.47-.61v-3.16Z"/>
      <path d="M78.02,16.01v-3.36h3.97c.08,0,.64.36.72.49.49.69.26,2.74-.59,2.74h-3.9s-.1.17-.2.13Z"/>
      <path d="M159.01,66c-.25,1.22.3,3.52-.03,4.61-.09.3-2.11,1.3-2.46,1.31-.32,0-1.12-.32-1.34-.55-.87-.95-.68-5.37.93-5.37h2.89Z"/>
      <path d="M123.65,67.37c1.09-.37,3.09-2.19,4-.61.7,1.22.55,4.93-.38,6.03-.61.72-3.13,1.15-3.54.3-.13-.28-.23-5.48-.08-5.73Z"/>
      <path d="M160.35,43.02h-4.71c-.13-3.44,4.93-3.6,4.71,0Z"/>
      <path d="M127.36,15.5c1.25-.21,2.37.02,2.79,1.31.36,1.12.33,4.28-.13,5.37-.63,1.49-2.99,1.6-3.89.26-.77-1.14-.76-4.35-.28-5.63.26-.68.79-1.19,1.51-1.31Z"/>
    </g>
  </g>
</svg>