<?xml version="1.0" encoding="UTF-8"?>
<svg id="Layer_1" data-name="Layer 1" xmlns="http://www.w3.org/2000/svg" viewBox="0 0 386.34 83.65" class="client-logo" fill="currentColor">
  <g id="dLsUvl.tif">
    <g>
      <polygon points="27.17 2.43 41.77 54.77 43.07 56.44 57.65 2.43 85.49 2.43 85.49 81.47 66.93 81.47 66.93 28.11 51.31 81.5 34.78 81.48 33.44 80.84 18.55 28.11 18.55 81.47 0 81.47 0 2.43 27.17 2.43"/>
      <path d="M176.27,20.21h-35.12v43.47h35.12v-13.83h21.21c-.91,2.51-.85,5.37-1.49,8.07-4.88,20.69-22.12,26.95-41.94,25.54-26.05-1.84-35.7-22.81-34.13-46.48,1.92-28.93,23.66-41.19,51.21-35.71,15.92,3.16,23.8,13.81,25.39,29.48.06.58-.3,1.32-.71,1.32h-18.55l-.99-.99v-10.87Z"/>
      <path d="M321.4,2.43v79.04h-17.23v-3.29c-1.81,0-3.03,1.6-4.63,2.31-8.77,3.92-22.11,2.3-28.51-5.28-11.21-13.27-9.76-44.22,8.43-50.9,5.2-1.91,12.79-2.19,18.08-.48,2.37.77,4.27,2.43,6.63,2.96V2.43h17.23ZM304.17,39.97h-23.19v24.7l.99.99h21.21l.99-.99v-24.7Z"/>
      <path d="M386.34,57.75h-41.75v9.22h25.18v-4.61h15.24c-3.32,18.61-25.04,24.66-41.09,18.11-22.35-9.12-21.28-49.61,2.8-56.49,16.66-4.76,34.3,1.22,38.65,19.24.18.76.96,4.09.96,4.32v10.21ZM369.77,38.65h-25.18v7.9h25.18v-7.9Z"/>
      <path d="M229.8,22.31c2.74-.26,9.02.93,11.77,1.82,6.9,2.25,12.43,7.16,15.22,13.86,7.34,17.63,1.01,42.27-20.59,44.75-23.57,2.7-36.71-11.57-34.77-34.56,1.42-16.83,12.58-24.37,28.36-25.87ZM242.54,39.97h-24.52v25.69h24.52v-25.69Z"/>
      <rect x="95.43" y="23.5" width="17.23" height="57.96"/>
      <rect x="95.43" y="2.43" width="17.23" height="15.81"/>
    </g>
  </g>
</svg>