<?xml version="1.0" encoding="UTF-8"?>
<svg id="Layer_1" data-name="Layer 1" xmlns="http://www.w3.org/2000/svg" viewBox="0 0 172.1 85.04" class="client-logo" fill="currentColor">
  <path d="M22.43,65.06c1.31,8.06,18.76,10.09,23.31,2.75,2.03-2.67,2.59-5.01,2.93-8.29,1.65-15.84-1.56-34.16.16-50.31l1.6-2.14c4.78-4.7,16.53-2.98,20.4,2.11l.21,21.29,18.69-1.87v14.97s-18.7-.01-18.7-.01c.43,8.52-2.27,17.9,4.62,24.37,7.04,6.36,23.32,5.29,29.1-2.8,9.38-13.1-2.8-17.97-2.05-26.21.49-5.4,10.47-11.54,15.97-10.39,6.38.82,6.25,7.53,8.72,11.95,1.95,3.48,14.27,24.86,15.62,25.51,3.24,1.54,2.79-2.18,3.66-3.73,5.46-9.69,8.97-21.05,12.36-31.63l12.93,1.75c.42,2.06-.15,3.75-.82,5.67-3.06,8.75-16.28,37.9-22.5,42.93-5.2,4.21-11.09,5.15-17.3,2.29l-10.76-15.4c-15.15,19.9-40.87,21.82-61.66,9.3-10.43,4.97-19.75,8.73-31.69,7.39-8.34-.93-21.56-6.14-24.51-14.73-.48-1.38-2.71-9.84-2.71-10.38v-28.97h22.43c1.2,10.63-1.64,24.43,0,34.58Z"/>
  <path d="M6.83.86c22.07-6.46,19.58,25.79,0,19.98C-1.48,18.38-1.45,3.28,6.83.86Z"/>
</svg>