<?xml version="1.0" encoding="UTF-8"?>
<svg id="Layer_1" data-name="Layer 1" xmlns="http://www.w3.org/2000/svg" viewBox="0 0 84.28 84.04"  class="client-logo" fill="currentColor">
  <g id="_5mvnWZ" data-name="5mvnWZ">
    <g>
      <path d="M42.57.03l2.03,3.97c18.8.82,34.54,16.73,35.53,35.46l4.15,2.71c0,.31-2.95,1.65-3.42,2.01-1.18.9-.69,1.74-.85,2.86-2.6,17.73-16.87,31.4-34.79,32.92-1.14.51-1.7,2.64-2.4,3.6-.17.23-.31.57-.68.47l-2.18-3.96c-3.32-.37-6.49-.87-9.68-1.89-14.45-4.63-25.38-18.6-26.03-33.82l-4.25-2.33c.98-1.19,2.84-1.96,4.26-2.6.22-6.92,2.77-13.77,6.76-19.38C17.65,10.75,28.42,4.43,39.97,4c.54-.89,1.29-3.01,1.89-3.68.24-.26.3-.37.7-.29ZM47.67,4.94c-13.32-1.41-26.08,3.05-34.53,13.51C-1.42,36.48,3.92,63.4,24.09,74.65c6.68,3.72,15.62,5.45,23.19,4.23.43-.07-.26-.66,0-.85l.59.87c12.68-2.03,23.72-10.6,28.75-22.39,1.18-2.76,1.9-5.67,2.5-8.61l-.84-.73.86.14c2.56-17.16-7.65-34.42-23.92-40.36-2.18-.8-5.27-1.82-7.47-1.53l-.07-.48Z"/>
      <path d="M41.86,53.17c.07.02,1.17.63,1.28.72,1.26,1.09,1.22,3.41-.13,4.43l-1.58.71c1.17.83,1.9,3.18,2.86,3.99.72.61,1.73.02,1.42,1.29-2.85.48-3.91-2.57-5.21-4.5l-1.93-.35v4.57s-1.71,0-1.71,0v-10.86c1.46.21,3.65-.29,5,0ZM38.57,58.31c1.73.22,3.74-.05,3.73-2.14-.01-2.35-1.86-2.17-3.73-2.14v4.29Z"/>
      <path d="M64.71,19.74c.13.03,1.29.71,1.42.86,1.24,1.37.94,3.8-.79,4.63-.37.18-.85.11-1.06.36,1.66,1.44,1.82,3.82,4.09,4.43.4.11.13.56.19.85-1.06.14-1.89-.13-2.79-.64l-2.42-3.86-2.22-.35.29,4.57h-1.72v-10.86c1.46.21,3.65-.29,5,0ZM61.14,24.88c1.39,0,3.11.33,3.86-1.14.52-1.03-.02-2.51-1-3.01-.73-.37-2.03-.03-2.86-.14.58.9.18,1.81.14,2.71-.02.49.36.97-.14,1.57Z"/>
      <path d="M33.35,19.52c5.39-.78,9.25,5.04,5.63,9.34-1.88,2.23-5.71,2.7-8.11,1.01-4.29-3.03-2.7-9.6,2.48-10.35ZM33.63,20.37c-4.7.81-4.71,8.79,0,9.59,1.73.3,3.72-.65,4.49-2.25.83-1.73.66-4.21-.45-5.79-.76-1.09-2.74-1.78-4.04-1.55Z"/>
      <path d="M31.57,36.59c.09.02,1.44.86,1.5.93,1.15,1.24.65,3.83-.87,4.57-.37.18-.85.11-1.06.36,1.48,1.38,1.99,4.37,4.29,4.43v.85c-.68-.01-1.33.11-1.99-.15-2.26-.89-2.36-5.39-5.43-4.71v4.57h-1.43v-10.86c1.45.21,3.67-.29,5,0ZM28,37.45v4.14c0,.17.32.33.57.3,1.3-.14,2.41.05,3.1-1.2,1.38-2.51-1.53-3.73-3.67-3.25Z"/>
      <path d="M21.14,47.45c-.74.23-1.57-.26-2.15-.27-.49,0-1.14.46-1.72.54-2.43.33-5.47-.51-6.41-2.97-.13-.34-.55.21-.86.12l.59-.44c-.75-1.76-.75-3.35,0-5.11l-.59-.44c.32-.09.7.46.86.12,1.14-2.49,5.14-3.17,7.5-2.34.96.34,2.31,1.1,2.49,2.22-1.27.29-1.56-.87-2.56-1.29-2.16-.9-5.52-.33-6,2.27l1.13.88-1.42-.72c-.13.67-.81,3.6.4,3.4.65-.5,1.52-.83,2.17-1.26.79-.52-.91-.72-.57-1l1.14.71-3.14,1.86c.57,2.4,3.21,3.48,5.51,3.08s1.99-1.34,1.92-3.37h-1.72s0-.86,0-.86h3.43s0,4.86,0,4.86Z"/>
      <path d="M69.42,55.45c-1.39.38-1.12-.73-2.01-1.27-2.3-1.39-5.98,1-2.57,2.85,2.04,1.11,4.93,1.23,5.15,4.25-.44,2.47-2.92,3.36-5.22,2.96-1.63-.29-3-1.33-3.06-3.08l1.11.03c.4,3.62,7.22,2.52,5.3-.59-1.21-1.97-6.02-1.48-6-4.73s4.91-3.92,6.87-1.58c.33.4.54.54.42,1.15Z"/>
      <path d="M58,53.17v.86h-5.43v3.71h4.57v1.14c-.11.14-.36-.29-.43-.29h-4.14v4.57h5.43v.86h-7.14v-10.86h7.14Z"/>
      <path d="M56.83,36.62l4.89,10.83-1.68-.03-1.64-3.08-4.79-.05-1.34,3.13-1.12.02,4.6-10.82h1.08ZM58.28,43.45c-1-1.51-1.23-3.64-2.57-4.86-.25,1.67-1.43,3.16-1.72,4.86h4.29Z"/>
      <path d="M47.71,36.59v.86h-5.71v3.71h4.86v.86c-.81.04-1.63-.05-2.44,0-.41.02-.79.27-1.13.27-.26,0-1.29-.5-1.29.17v4.14h5.71v.86h-7.14v-10.86h7.14Z"/>
      <path d="M46.57,19.74v7.86c0,.42.88,1.59,1.28,1.87,1.38.95,4.07.61,4.79-.94.09-.2.51-1.42.51-1.49v-7.29h.86v7.86c0,.08-.5,1.21-.61,1.39-1.42,2.32-5.67,2.56-7.4.62-.14-.16-.85-1.36-.85-1.44v-8.43h1.43Z"/>
      <path d="M22.57,53.17v.86h-5.43v3.71h4.43c.34,0,.67.85,0,1.12-1.3-.85-2.71.54-4.01-.23l-.42.39v5h-1.71v-10.86h7.14Z"/>
      <polygon points="24.57 19.74 24.57 20.6 18.86 20.6 18.86 24.31 23.71 24.31 23.71 25.17 18.86 25.17 18.86 30.6 17.14 30.6 17.14 19.74 24.57 19.74"/>
      <path d="M28.28,53.17h1.71c.14.11-.29.36-.29.43v10.43h-1.43v-10.86Z"/>
      <path d="M77.71,37.17c-.03.36-.4.47-.66.63-.23.14-.8.48-1.05.37.5-.36,1.07-.98,1.71-1Z"/>
      <path d="M45.57,9.17c.11.26-.23.8-.37,1.05-.29.52-.67,1.06-1.06,1.51-.11-.26.23-.8.37-1.05.29-.52.67-1.06,1.06-1.51Z"/>
      <polygon points="42.03 14.3 42.85 14.17 42 14.88 40.71 12.03 42.03 14.3"/>
      <path d="M43.28,71.17l2.86,4.85c-1.02-1.11-1.75-2.49-2.49-3.8-.14-.25-.48-.79-.37-1.05Z"/>
      <polygon points="43.86 12.03 44 12.17 43 13.74 42.86 13.6 43.86 12.03"/>
      <path d="M41.71,69.45c.59-.03.17.51.05.77-.2.44-.41.9-.77,1.23l.72-2Z"/>
      <polygon points="42.28 69.45 42.57 69.45 43.14 70.74 43 70.88 42.31 69.85 42.28 69.45"/>
      <polygon points="39.57 10.03 40.57 11.6 40.43 11.74 39.43 10.17 39.57 10.03"/>
      <path d="M39.14,74.02c.68.07.14.47,0,.72-.29.53-.61,1.1-1.01,1.56l1-2.28Z"/>
      <path d="M6,36.88c-.03-.58.51-.18.77-.06.98.45,2.14,1.2,2.94,1.92l-2.56-1.44-1.15-.42Z"/>
      <polygon points="78.85 36.6 78.85 36.88 78.14 37.16 78 37.02 78.85 36.6"/>
      <path d="M37.57,6.6l1.43,2.57c-.39-.45-.77-.99-1.06-1.51-.14-.25-.49-.79-.37-1.05Z"/>
      <polygon points="46.71 7.17 46.85 7.31 45.85 8.88 45.71 8.74 46.71 7.17"/>
      <polygon points="37.86 76.59 38 76.73 37 78.3 36.86 78.17 37.86 76.59"/>
      <rect x="74.28" y="38.88" width=".57" height=".28"/>
      <polygon points="46.42 76.59 47.14 77.59 47 77.73 46.29 76.73 46.42 76.59"/>
      <path d="M73.85,39.17l.14.14c-.33.47-.86.65-1.28,1l-.14-.14,1.28-1Z"/>
      <polygon points="75.57 45.45 77.14 46.45 77 46.59 75.71 45.88 75.43 45.59 75.57 45.45"/>
      <polygon points="75.14 36.59 75.14 37.45 70.85 37.45 70.85 40.88 72.28 40.45 70.88 41.19 70.84 42.7 71.71 43.31 70.85 43.17 70.85 47.45 69.42 47.45 69.42 37.45 65.14 37.45 65.14 36.59 75.14 36.59"/>
      <path d="M8,46.02c-.07-.43.46-.33.77-.51.29-.16.66-.65.94-.49-.45.48-.99,1-1.71,1Z"/>
      <polygon points="72.14 43.45 75.14 45.31 73.9 44.83 72.14 43.45"/>
      <rect x="47.12" y="5.93" width=".6" height=".2" transform="translate(9.63 35.3) rotate(-45)"/>
      <path d="M37.28,6.03c.19,0,.19.29,0,.29s-.19-.29,0-.29Z"/>
      <rect x="6.78" y="46.35" width="1.01" height=".2" transform="translate(-30.71 18.76) rotate(-45)"/>
      <rect x="77.61" y="46.58" width=".2" height=".6" transform="translate(-10.39 68.68) rotate(-45)"/>
      <path d="M6.43,46.88c.19,0,.19.29,0,.29s-.19-.29,0-.29Z"/>
      <path d="M5.86,47.17c.19,0,.19.29,0,.29s-.19-.29,0-.29Z"/>
      <path d="M40.71,71.74c.19,0,.19.29,0,.29s-.19-.29,0-.29Z"/>
      <path d="M40.14,72.59c.19,0,.19.29,0,.29s-.19-.29,0-.29Z"/>
      <rect x="39.41" y="73.35" width=".6" height=".2" transform="translate(-40.31 49.59) rotate(-45)"/>
      <path d="M39.28,9.45c.19,0,.19.29,0,.29s-.19-.29,0-.29Z"/>
      <path d="M43.85,77.74c.19,0,.19.29,0,.29s-.19-.29,0-.29Z"/>
    </g>
  </g>
</svg>