<?xml version="1.0" encoding="UTF-8"?>
<svg id="Layer_1" data-name="Layer 1" xmlns="http://www.w3.org/2000/svg" viewBox="0 0 80.79 85.04" class="client-logo" fill="currentColor">
  <g id="O2M0Fb.tif">
    <g>
      <path d="M68.57,56.89l-8.4-.33c-1.08-5-.7-10.27-2.55-15.08l.03,2.19c.67,4.15,1.23,8.32,1.33,12.53l-.49-2.07c-1.31-2.61-4.61-1.98-7.03-2.04.1-.85.63-1.53.87-2.38,1.38-4.97.05-9.21-5.85-8.59-.53.06-1.04.06-1.18.7,1.96-.12,4.04.17,5.64,1.37,1.88,3.31.41,7.57-1.88,10.27,2.35.05,6.79-1.36,8.14,1.28.25.49.58,1.25-.12,1.44-2.84.13-5.7-.07-8.54.02-7.49.23-15.4.87-22.93.37-.52-.03-3.26-.39-3.23-.87l1.7-1.04,10.06-2.26.56-.47c-2.36-4.98-.75-10.29,3.36-13.69-.11-.88-.76-.83-1.13-1.19-3.41-3.35-9.54-8.39-10.37-13.27-.21-1.27.02-2.54.66-3.65.82-1.44,1.96-2.41,3.48-3.02.67-.27.73-.46,1.26.24.06.14-1.03.46-1.36.7-.9.65-2.46,2.4-2.68,3.48-1.26,5.95,7.24,11.95,10.75,15.84,1.41-.42,2.35-1.61,3.38-2.38,3.8-2.83,8.1-5.47,9.01-10.52.17-.95-.42-3.55-.89-4.45-1.3-2.48-4.7-3.12-7.16-2.23-1.48.54-2.62,1.71-3.98,2.44l-4.67-3.56c0-1.26.89.02,1.25.12.65.18,1.08.08,1.48-.46l-1.71-1.2,2.39-.17-1.02-1.2c4.18-1.78,3.21-6.87,7.07-9.2,1.88-1.13,3.58-1.32,5.78-1.09s4.16,2.97,4.26,5.01c.08,1.51-1.52,4.21-2.75,5.09-.65.47-2.79,1.54-3.03.32.11-1.13.44-2.44.04-3.47-.19-.5-.05-.52-.75-.43-.2,1.03-.8,4.78-.01,5.32,1.48.97,4.04-.16,5.25-1.19.2-.17,1.7-2.75,1.79-3.08.27-.97.17-2.16.44-3.19l-2.68-4.7c3.95,2.06,7.07,6.38,8.96,10.38,3.3,6.99,4.3,15.72,3.71,23.36-.35,4.54-1.04,9.09-1.4,13.67-.03.35-.29.66-.31,1.02.68.93,1.92.37,3.08.69,2.26.63,2.84,2.55,2.38,4.64ZM42.91,11.35l1.37-.52c.15-.56-.42-1.32-.86-1.54-.87-.43-.42,1.74-.51,2.05ZM38.63,38.74c-.22,0-.22.34,0,.34s.22-.34,0-.34ZM24.08,55.52h-.68v.34h.68v-.34Z"/>
      <path d="M13.64,56.55c-.4-.08-1.43-.99-1.7-1.38-1.43-2.1.47-4.92,2.57-5.66-.39-3.34-1.5-6.6-2.05-9.93-1.8-11.05-.81-23.24,6.48-32.16.6-.73,1.78-1.51,2.21-2.24S23.05.11,23.59.03c.43-.07,1.08-.05,1.35.35l1.24,4.76c1.21.33,3.8,1.34,4.65,2.19,1.06,1.06,1.53,3.35,2.15,4.7-.68.69-1.89-2.53-2.1-2.86-1.3-1.95-3.55-2.33-5.45-3.45-.54-1.03-.77-2.19-1.18-3.27-.13-.34-.04-.78-.51-.69-.5,1.34-.97,3.05-1.76,4.23-1.27,1.89-3.09,3.12-4.46,5.47-4.7,8.07-5.31,18.03-4.02,27.1.57,4.05,1.65,8.07,2.72,12l-2.35.22c-.49.73-1.73,2.92-1.25,3.72.15.25,1.22,1.03,1.37,1.03h5.99l-.66-3.62c.26-1.51-.31-3.07-.37-4.42-.19-3.65.11-7.31.78-10.88l.94-2.31c-.04,1.19-.59,2.42-.69,3.59-.34,3.97-.06,9.74.34,13.72.16,1.6.72,3.32.7,4.95-2.13-.31-5.39.42-7.36,0Z"/>
      <path d="M44.79,78.47l-.81-.91c-.23-.76,1.09-5.97,1.49-6.97.15-.37.32-.86.73-.98,4-.37,1.21,3.92,1.16,6.12h2.74s0-5.65,0-5.65c.5-.72,1.37-.57,2.18-.47l.75.99c.05,1.61.54,10.73-.22,11.27l-2.38-.12-.32-3.27h-5.3Z"/>
      <path d="M2.86,79.49c.47,2.14-1.17,3.97-2.68,1.83.18-2.36-.43-5.59-.06-7.82.09-.54.41-.91.91-1.14,3.35-.56,7.27.41,6.61,4.56-.1.66-.68,1.19-.68,1.72,0,.69,1.33,2.3.88,2.92l-1.68.64c-1.63-1.02-.7-3.28-3.31-2.71ZM2.86,77.1c3.34.56,3.34-2.62,0-2.06v2.06Z"/>
      <path d="M29.58,84.26l.02-1.12c.9-1.84,1.93-.22,2.8-.29l.71-.27.2-1.03c-3.8,1.6-6.18-3.37-2.91-5.82,1.49-1.12,1.48-.44,2.77-.34.71.06,1.53-.69,2.22-.19,1.03.75.11,4.05.57,5.1l-.42,2.98c-1.59,2.27-3.63,2.08-5.97,1ZM32.15,77.45c-1.17.25-1.29,2.59.64,2.02,1.15-.34.17-2.2-.64-2.02Z"/>
      <path d="M54.2,72.64c2.59-.8,6.88-.66,7.45,2.64s-2.2,4.62-5.06,4.2l-.03,2.37-1.51.4-.86-.54v-9.07ZM58.99,75.04h-2.4s0,2.06,0,2.06l2.07-.15c.51-.34.29-1.31.32-1.9Z"/>
      <path d="M39.14,79.49c-.08.46.95.67,1.22.69,1.06.07,1.86-1.12,2.61.44.51,1.05-.26,1.45-1.28,1.6-2.56.38-5.03-.47-5.29-3.27s2.9-4.71,5.48-3.74c.88.85,1.91,1.67,1.66,3.02-.38,2.03-2.86,1.07-4.4,1.27ZM40.85,77.44c-.7-.05-1.49-.11-1.71.68h1.71s0-.68,0-.68Z"/>
      <path d="M10.74,79.49c-.08.46.95.67,1.22.69.78.05,2.43-1.08,2.57.51.17,1.96-3.19,1.82-4.49,1.39-3.05-1-2.83-6.55.89-7.02,2.08-.26,4.07.5,3.95,2.9-.11,2.22-2.56,1.41-4.13,1.54ZM12.45,77.44h-1.71v.68h1.71v-.68Z"/>
      <path d="M68.91,77.44c.08-.59-.11-1.25.03-1.85l.93-.6c-.01-3.24,3.12-3.15,2.8.05l1.38.16c1.24,1.32.31,3.05-1.38,2.24v2.4s1.34.02,1.34.02l.3.89-.6,1.33c-.74.5-2.22-.09-2.95-.51-.99-1.17-.87-2.71-.83-4.13-.34-.03-.69.04-1.03,0-.1.81-.5,1.61-1.25,2l-3.2.05c-.1.42.68.58.94.62,1.51.19,3.19-1.34,2.79,1.75-3.16,1.24-7.02-.02-6.46-3.9.47-3.32,6.31-4.33,6.87-.55.05.09.21.01.31.02ZM66.18,77.44c-.7-.05-1.49-.11-1.71.68h1.71s0-.68,0-.68Z"/>
      <path d="M28.19,81.72l-1.86.53-.21-.68-1.52.68c-3.49-.33-3.49-3.16-3.26-6.03.11-1.38.82-1.42,2.09-1.03,1.02.69-.75,4.54,1.53,4.31,1.65-.16.36-3.16,1-4.14.65-.57,1.75-.51,2.24.19v6.16Z"/>
      <path d="M20.32,71.96l-.15,2.08-1.56,1,1.9.33.13,2.05-1.69.02c.22,2.11.06,6.81-2.69,3.89l-.07-3.87-1-.02-.03-1.83c1.39-.57,1.11-2.08,2.08-3.12l3.08-.52Z"/>
      <path d="M77.47,77.1l2.74,1.19c2.39,3.73-3.36,5.42-5.45,2.7l.85-1.49,2.88.67-2.9-1.37c-2.21-3.61,2.61-4.96,4.94-2.88l-.88,1.48-2.19-.31Z"/>
      <polygon points="27.5 10.66 26.99 12.71 26.14 11.01 27.5 10.66"/>
    </g>
  </g>
</svg>