<?xml version="1.0" encoding="UTF-8"?>
<svg id="Layer_1" data-name="Layer 1" xmlns="http://www.w3.org/2000/svg" viewBox="0 0 300.15 85.35" class="client-logo" fill="currentColor">
  <g id="RDFRKD.tif">
    <g>
      <path d="M300.15,0v85.35h-90.79V0h90.79ZM281.67,27.63v-11.15c-3.39-1.55-7.12-2.83-10.76-3.75-17.1-4.34-37.38.39-45.09,17.58-7.65,17.07,1.65,36.41,19.26,41.86,10.41,3.22,21.68,2.64,31.83-1.22,1.83-.69,3.63-1.5,5.31-2.5v-11.69c-7.05,4.42-15.67,8.03-24.17,7.67-3.35-.14-7.24-.88-10.37-2.09-16.75-6.5-17.76-30.37-1.91-38.5,8.66-4.44,17.91-3.45,26.8-.32,3.15,1.11,6.13,2.6,9.1,4.11Z"/>
      <path d="M195.54,0v85.35h-90.92V0h90.92ZM128.58,12.04v61.41c8.87-.08,17.77.17,26.63-.14,8.15-.85,16.56-4.65,18.36-13.4,1.93-9.38-3.96-17.05-12.94-19.16l3.56-2.53c10.42-11.2.24-25.95-13.48-26.2h-22.12Z"/>
      <path d="M90.79,0v85.35H0V0h90.79ZM23.83,12.04v61.41h24.58c11.95.03,24.22-8.41,20.09-21.71-1.8-5.81-6.85-9.61-12.63-10.98l3.21-2.19c10.88-11.68,1.3-25.64-13.14-26.54h-22.12Z"/>
      <path d="M139.53,63.87v-16.69h13.63c13.3.87,12.11,16.32-.41,16.69h-13.22Z"/>
      <path d="M139.53,37.48v-15.87h10.06c.82,0,3.08.79,3.86,1.21,4.76,2.55,4.78,9.29.58,12.39s-9.74,2.13-14.5,2.27Z"/>
      <path d="M34.78,63.87v-16.69h13.63c12.32.8,12.77,14.81,1.05,16.51-4.87.38-9.79.08-14.68.17Z"/>
      <path d="M34.78,37.48v-15.87h10.2c.36,0,1.77.4,2.2.54,7.07,2.3,6.83,11.25.29,14.12-3.99,1.75-8.46,1.08-12.69,1.21Z"/>
    </g>
  </g>
</svg>