<?xml version="1.0" encoding="UTF-8"?>
<svg id="Layer_1" data-name="Layer 1" xmlns="http://www.w3.org/2000/svg" viewBox="0 0 431.06 82.75" class="client-logo" fill="currentColor">
  <path d="M391.74,0c40.93,3.05,54.71,56.98,18.06,77.15-34.18,18.81-55.54-14.09-77.03-34.25l-1.02-1.74c10.31-9.32,19.81-21.38,30.32-30.27,7.13-6.04,16.52-10.36,26.01-10.88h3.66ZM388.81,44.32v-24.34c0-1.54-4.24-4.69-5.84-5.11-4.21-1.12-9.49,1-10.66,5.45-1.1,4.22-.97,28.77-.36,33.83s4.34,7.12,9.18,7.6c4.48.45,23.56.56,26.89-.91,5.29-2.34,6.76-9.8,2.77-13.99-.48-.5-3.76-2.53-4.04-2.53h-17.94Z"/>
  <path d="M113.49,58.49c-2.02,12.12-26.75,14.05-27.83.37,2.39.27,5.41-.42,7.67.01,2,.38,2.39,2.3,3.82,2.74,4.82,1.47,8.63-2.35,8.27-7.12-13.05,9.9-26.45-6.56-18.18-19.14,3.79-5.75,12.97-7.89,18.18-2.66l.41-2.23,7.65.05c-1,8.44,1.35,19.92,0,27.97ZM103.77,38.71c-6.31-6.26-15.39,4.33-8.96,9.99,6.72,5.91,14.7-4.29,8.96-9.99Z"/>
  <path d="M210.15,21.8v34.88l-6.92.05-.41-2.24c-1.61.87-3.03,2.35-4.92,2.74-24.11,4.98-20.14-37.82,4.19-25.26v-10.17h8.05ZM194.58,37.21c-8.08,1.55-6.46,14.96,3.33,12.77,7.8-1.75,5.86-14.53-3.33-12.77Z"/>
  <path d="M50.52,56.68l-7.65.05-.41-2.23c-12.93,10.15-27.11-6.2-18.91-19.13,3.7-5.84,13.91-8.05,18.91-2.66l.41-2.23,7.65.05v26.16ZM40.77,48.45c5.51-5.98-2.74-15.55-9.32-9.61-7.12,6.43,3.6,15.82,9.32,9.61Z"/>
  <path d="M235.78,45.05c1.93.21,1.16-.03,1.47-1.07.97-3.22,5.21-20.3,6.2-21.47,1.31-1.55,6.97-.36,9.16-.71l-11.7,34.52c-2.42.38-7.97,1.24-9.47-.8l-11.04-33.72,9.16.71,6.22,22.54Z"/>
  <path d="M144.07,29.98c23.02-3.26,22.69,31.2-.75,27.24-14.98-2.53-13.87-25.17.75-27.24ZM151.34,38.74c-7.15-6.49-15.34,6.14-8.11,10.59s13.38-5.81,8.11-10.59Z"/>
  <path d="M280.44,45.78h-19.77c.6,4.22,4.21,6.17,8.28,4.94,1.06-.32,1.5-1.71,3.08-2.02,2.15-.42,5.48-.03,7.67.35-4.38,12.08-23.91,10.63-26.19-1.62-4.18-22.53,29.05-23.83,26.92-1.65ZM261.4,40.69h10.98c-.54-5.87-10.49-6.12-10.98,0Z"/>
  <path d="M80.54,56.68h-8.05v-17.08c0-2.97-8.79-3.88-8.79,1.45v15.62h-7.32v-26.16l6.92-.05.76,2.23c3.46-6.13,16.48-1.9,16.48,4v19.98Z"/>
  <path d="M318.27,32.21c.73.73,2.93,5.13,2.44,5.56-2.27-.31-5.46.47-7.55-.01-.59-.14-.17-1.26-1.56-1.49-.77-.13-3.62-.61-3.35,1.15.7,4.54,12.83,2.22,13.24,10.9.55,11.76-21.55,12.75-21.28.36,2.05.26,4.99-.49,6.86.12.96.31,2.5,4.56,5.89,2.13,4.52-3.24-7.66-5.46-8.62-5.98-12.56-6.82,4.82-21.86,13.93-12.74Z"/>
  <polygon points="8.79 21.8 8.79 48.68 19.04 48.68 19.04 56.68 0 56.68 0 21.8 8.79 21.8"/>
  <path d="M119.35,36.33h-2.94s0-5.82,0-5.82h2.94c-1.07-6.81,4.89-9.9,10.98-9.45l.03,5.34-2.86,1.31-.11,2.8h2.94s0,5.82,0,5.82h-2.94s0,20.34,0,20.34h-8.05v-20.35Z"/>
  <polygon points="286.3 36.33 282.63 36.33 282.63 30.51 286.3 30.52 286.72 21.79 294.36 21.79 294.35 30.52 298.02 30.51 298.03 35.91 294.35 36.33 294.35 56.68 286.3 56.68 286.3 36.33"/>
  <path d="M165.48,30.52l6.92-.05.76,2.23c1.65-1.92,3.53-3.24,6.22-2.9v7.99c-1.78-.27-5.85.3-5.85,2.55v16.35h-8.05v-26.16Z"/>
  <path d="M374.9,23.61c1.22-7.36,10.26-7.58,11.02.69.58,6.36-.5,13.57-.03,20.02-4.02-.2-7.29-.21-10.99,1.45.79-6.72-1.06-15.74,0-22.16Z"/>
  <path d="M388.08,58.13l.73-10.17h17.21c2.55,0,4.02,4.88,2.92,7.25-.17.38-2.71,2.92-2.92,2.92h-17.94Z"/>
  <path d="M385.88,47.95c2.4,5.85-4.61,14.28-9.3,8.51s3.74-10.39,9.3-8.51Z"/>
</svg>