<?xml version="1.0" encoding="UTF-8"?>
<svg id="Tree" xmlns="http://www.w3.org/2000/svg" viewBox="0 0 933.31 502.97">
  <defs>
    <style>
      .cls-1 {
        fill: #f2ece5;
      }

      .cls-2 {
        fill: #f37121;
      }
    </style>
  </defs>
  <g id="IFFu81.tif">
    <g>
      <path class="cls-2" d="M290.55,448.54l-.79.16c-.05,2.98-2.58,5.05-4,7.06-.34.49-.57,1.72-1.15,2.55-.5.73-3.97,3.88-4.83,4.55-2.68,2.08-6.14,4.5-9.58,5.73-3.12,1.12-6.26.93-9.42,2.13H63.32c-1.84-1.59-3.58-.71-5.53-1.02-.79-.12-1.1-.78-1.59-.92-.75-.22-1.57.03-2.33-.18-1.7-.47-8.14-4.2-9.64-5.43-7.03-5.74-11.25-13.44-12.83-22.33V106.83c1.5-15.39,14.09-28.38,29.39-30.89h203.51c15.62,2.8,25.98,16.28,28.39,31.39v332.01c-1,3.1-1.37,6.13-2.13,9.2ZM152,152.8v52.73s-.46-.11-.65.01c-1.71,1.09-5,6.06-6.56,7.87-14.85,17.37-29.77,34.64-44.55,52.13-5.41,6.4-11.64,13.15-16.57,19.99-.27.38-.77.31-.87.46-.27.38-1.12,2.58-1.17,3.12-.29,3.22.03,5.89,2.31,8.29,2.92,3.08,9.16,3.48,12.56,1.04,1.7-1.22,2.48-3.26,3.75-4.79,15.92-19.18,32.43-37.95,48.23-57.25.78-.95,2.27-2.63,3.52-2.76v50.98c-18.52,22.35-37.52,44.24-56.43,66.41-.83.97-2.5,2.26-3.36,3.4-2.74,3.64-3.87,8.12-1.02,12.07,2.78,3.86,8.43,5.09,12.35,2.26,3.29-2.38,6.15-6.84,8.77-9.82,10.84-12.32,21.45-24.76,32.16-37.16,2.08-2.4,4.13-4.98,6.01-7.47l1.52-.31v107.73c0,.15.66.76.79,1.22.23.85.14,1.71.48,2.53.08.21,1.73,2.74,1.88,2.89.96.97,2.76.73,3.18,2.16,1.56-.21,3.5.23,4.98-.02.37-.06,3.94-1.9,4.15-2.12.38-.41,2.53-4.55,2.62-5.17-.63-35.97.87-72.03.03-107.99-.03-1.31-1.01-2.4.23-3.24l10.29,12.31c11.03,12.43,21.46,25.71,32.5,38.05,1.9,2.13,3.5,4.81,5.92,6.41,1.79,1.18,3.88,1.86,6.05,1.49.38-.07,4.26-1.96,4.75-2.28,2.9-1.88,3.47-7.75,2.27-10.77-.45-1.13-4.18-5.47-5.26-6.8-16.6-20.38-34.46-40.04-51.25-60.26-1.82-2.19-3.2-4.75-5.52-6.53v-50.98c.57.17,1.13.8,1.51,1.25,16.01,19.41,32.08,38.63,48.73,57.75,1.84,2.12,4.03,6.24,6.88,7.19.55.18,1.24.02,1.81.2.54.17.84.78,1.6.91,1.82.3,1.98-.46,3.14-.89.5-.19,1.09-.12,1.61-.4,4.43-2.32,6.76-7.85,3.77-12.26-1.85-2.73-5.16-5.73-7.26-8.31-18.92-23.17-38.34-45.67-57.05-69.03-1.54-1.92-3.41-3.6-4.74-5.81v-50.47c1.55-.18,1.58,1.61,2.28,2.49,2.12,2.68,4.61,5.18,6.77,7.8,12.39,14.99,24.52,30.44,37.44,44.92,1.67,1.87,3.2,4.32,5.98,4.58,4.02.37,6.79.05,9.33-3.29,1.55-2.03,2.17-5.97,1.24-8.29-.59-1.48-4.5-6.24-5.77-7.8-1-1.23-2.51-2.28-3.52-3.51-16.59-20.12-33.05-40.66-49.74-60.77-2.69-3.24-6.87-10.33-11.27-10.83-2.3-.26-6.01.51-7.68,2.17-1.46,1.45-2.87,4.04-4.15,5.55-18.41,21.74-36.16,43.67-54.43,65.49-.6.72-2.24,1.76-2.84,2.5-1.17,1.44-4.76,6.86-5.03,8.44-.29,1.71.14,4.14.08,5.95,2.75,3.87,6.09,4.88,10.75,4.37,1.28-.14,2.28-.96,3.25-1.77,4.98-4.15,8.43-9.7,12.54-14.58,11.94-14.18,24.06-28.2,35.57-42.78.29-.37-.12-.96,1.11-.65Z"/>
      <path class="cls-1" d="M531.8,352.19c-.71,1.87.83,3.15,1.01,4.26s-.18,2.42-.01,3.53c.79,4.99,3.29,11.08,4.03,16.06.7,4.7,1.78,11.52,3.09,15.99s2.01,8.96,3.01,13.56c.74,3.38,2.47,7.96,2.94,11.13.25,1.65-.48,3.47,1.25,4.77l15.83-69.3h30.14l1,108.48h-21.1v-75.58c0-.11-.87-.92-1-.75.03.89.04,1.76-.12,2.65-1.86,10.28-4.8,20.09-7,30.16-1.85,8.47-3.98,16.79-5.86,25.28-.95,4.3-1.42,8.63-2.09,12.98-.12.81-.89,1.18-1.02,2-.16,1.01.11,2.22,0,3.27l-18.06-.02-16.86-75.31-1.17,1.15.42,74.18-20.58-.02.48-108.46h31.65Z"/>
      <path class="cls-1" d="M387.99,227.76c1.04,1.04,2.82,3.77,3.67,5.13.36.58.38,1.38.62,1.66.15.17.64.07.74.21.37.53.95,3.73,1.22,4.58.55,1.73,1.63,4.83,1.9,6.64.2,1.35.22,5.7.01,7.03-.13.82-.89,1.19-1.02,2-.34,2.21-.22,4.15-1.1,6.43-.95,2.46-4.18,7.76-6.27,9.4-.8.63-2.41,1.55-3.35,2-.58.28-.34.47-.32,1.01,1.1.02,2.49.74,3.48,1.3,3.92,2.22,5.23,3.79,7.58,7.4.24.37.76.3.87.45.24.34,1.91,4.26,2.06,4.75.27.92-.09,1.92.18,2.84.14.49.8.8.92,1.59.8,5.09-.4,11.66-.99,16.54l-1.05.59c-1.02,6.79-6.98,13.36-13.57,16.5-5.12,2.44-13.09,4.14-18.79,3.76-8.51-.57-16.58-.62-25.17-1.45-1.31-.13-2.82.18-4-.02-.91-.16-1.58-1.2-2.71-1.06.36-1.42-.9-2.24-1.06-3.21-1.12-7.04.32-18.42.02-26.14-.13-3.44-.63-7.55-1.04-11.01l.07-66.01c.98-.15,1.74-.9,2.72-1.04,3.71-.56,9.08.16,13.07,0,3.28-.13,7.84-1.06,11.04-1.06,1.71,0,4.66.92,6.51,1.06,3.48.25,4.15-.13,7.64.9,1.56.46,4.03.56,5.84,1.2,2.86,1,8.1,3.88,10.27,6.05ZM362.25,238.68c-2.06-.61-6.87.45-9.29,0v23.86c.58.66,1.4,1.12,2.27,1.24,1.68.24,7.39.28,9.04.02.79-.12,1.1-.78,1.59-.92,1.44-.42,2.21.18,3.84-1.09.38-.3.33-.71.48-.84.39-.35.97-.42,1.39-.89,1.4-1.56,1.09-2.38,1.59-3.94.17-.54.79-.84.91-1.6.15-.95.15-4.63-.1-5.44-.13-.42-.68-.73-.81-1.2-.24-.81-.07-1.58-.49-2.53-.75-1.71-5.18-5.12-6.99-5.57-.76-.19-1.6.03-2.34-.18-.57-.16-.92-.87-1.09-.92ZM362.25,283.88c-2.31-.41-5.59.3-8.04,0-.75.48-.71.96-.77,1.74-.29,3.51.45,6.84.54,10.05.13,4.77-.13,9.57-.02,14.33h11.81c.17,0,.77-.68,1.22-.79.97-.23,1.89-.09,2.7-.31,2-.55,3.19-2.36,4.55-3.75.63-.64,1.05-.16.92-2.12l.93-.36c.26-3.32.57-6.14-.02-9.51-.4-2.25-4.02-5.94-6.05-7.01s-3.74-.96-5.65-1.38c-.77-.17-1.69-.83-2.11-.9Z"/>
      <path class="cls-1" d="M694.51,88.12l.37.92c1.88-.42,2.8,1.12,4.64,1.1l.4.91c1.82.18,4.63,2.51,6.37,4,2.26,1.94,4.52,5.02,6.09,7.58.62,1,1.44,2.08,1.26,3.15l.91.4,1.1,4.64,1.05.59c1.12,5.29,1.76,10.61,3.01,16.01-.79,9.98.99,21.38,0,31.17-.14,1.34-.85,2.35-1,3.52-.16,1.28.18,2.65-.11,3.91-2.56,11.2-6.85,23.21-17.54,29.17-2.87,1.6-7.76,3.51-10.85,4.22-1.52.35-3.34-.1-4.91.11-1.19.16-2.26.97-3.54,1.02-1.62.07-2.66-.84-4.04-1.02-3.73-.49-5.97.26-9.92-1.13-1.8-.63-5.16-2.19-6.84-3.2-7.52-4.55-12.96-12.94-15.52-21.15-.75-2.42-1.77-6.96-2.09-9.46-1.6-12.4-1.6-26.3-.05-38.68.2-1.58-.23-3.4.12-4.9,2.64-11.49,6.85-23.01,17.73-29.48,5.54-3.3,16.22-6.22,22.59-5.48,3.62.42,7.15,1.82,10.76,2.08ZM672.59,177.27c.38.25.94.19,1.34.43,2.44,1.45,1.75,1.41,4.79,1.76,1.88.21,1.82.07,3.53-.05,2.5-.17,3.79.18,6.06-1.47,2.69-1.95,5.07-5.88,6.16-8.91.84-2.33.8-4.1,1.12-6.42.13-.94.86-1.58.99-2.53,1.15-8.05,1.8-20.54,1.03-28.64-.12-1.33-.86-1.95-1.02-3-.21-1.41.2-3.09-.02-4.5-.25-1.62-1.35-4.58-1.88-6.15-1-2.98-2.58-6.4-5.17-8.39-.73-.56-3.48-2.17-4.23-2.3-1.24-.21-6.31-.21-7.54,0-.82.14-3.77,1.89-4.52,2.51-1.12.94-3.07,2.92-2.74,4.21l-1.05.63-.08,1.62-.92.37c-.6,1.73-.62,4.91-1.07,6.39-.89,2.94-.52,3.43-.92,6.11-.16,1.05-.89,1.67-1.02,3-.45,4.8-.66,18.61.03,23.11.14.95.85,1.58.99,2.53.2,1.37-.29,3.17.1,4.42.15.5.8.81.92,1.59.19,1.22-.28,2.76.08,3.93.42,1.37,1.55,4.61,2.18,5.86.14.28,2.68,3.74,2.88,3.88Z"/>
      <path class="cls-1" d="M492.37,196.5c-.48-.35-.68-.65-.77-1.24-.51-3.61.18-8.71.03-12.59-.13-3.4-.91-7.61-1.04-11.01-.89-22.8,1.33-46.69.03-69.34-.13-2.25-.91-5.25-1.04-7.5-.12-2.08.12-4.21.02-6.3,1.41-.09,2.89.13,4.29.02,8.19-.66,18.4-1.1,26.63-.54,1.96.13,4.11.9,5.99,1.04,3.55.27,6.58-.27,10.02.97l.6,1.04c3.97.45,9.66,4.2,12.26,7.26,1.86,2.19,4.15,5.28,4.62,7.71l.91.39c4.19,11.71,4.02,24.02,0,35.51l-.89.42c-.21.64-.09,1.24-.38,1.91-1.41,3.29-7.37,8.17-10.76,9.09-.17,1.45-.29,1.75.98,2.3,1.02,4.86,4.35,9.55,5,14.44l1.02.63,3.01,9.39,1.01.65c.83,4.62,3.59,9.11,4.93,13.57.21.71.07,1.45.09,2.17h-20.85c-.44,0-2.42-1.06-3.23-1.04.45-1.64-.63-2.37-.94-3.33-3.34-10.41-8.15-22.56-12.4-32.8-.38-.91-1.02-2.89-1.76-3.28l-7.04.27,1.01,40.18h-21.35ZM512.21,138.24h13.82c1.17-1.11,2.74-1.44,4.02-2.51.52-.43,3.33-3.61,3.52-4.01.36-.74.12-1.5.34-2.17.18-.54.79-.84.91-1.6.2-1.23.2-8.5-.1-9.46-.13-.42-.67-.73-.81-1.19-.21-.66-.05-1.36-.36-2.15-.91-2.3-4.5-5.35-6.74-6.32-.37-.16-.72-.72-.78-.72h-13.31l-.5,30.13Z"/>
      <path class="cls-1" d="M477.55,88.52v83.62c0,.07-.76.55-.92,1.09-.47,1.6-.31,5-1.07,6.9l-.91.39c-1,5.71-4.84,8.72-9.01,12.14-.3.25-1.14,1.68-1.23,1.74-.51.32-1.37-.13-1.86.2-.94.64-2.02,2.23-4.01,2.02l-.39.91c-2.2-.04-4.6,1.29-6.57,1.9-1.15.35-2.68-.08-3.92.1-1.04.15-1.67.89-3,1.02-1.81.17-5.27.18-7.07,0-1.34-.14-2.35-.85-3.52-1-3.94-.51-6.11-.76-9.9-2.16-2.61-.97-6.02-2.64-8.17-4.39-2.57-2.1-6.48-6.9-7.68-9.9-.27-.67-.75-2.2-1.01-3.01-1.47-4.52-1.72-9.17-2.09-13.98-1.93-24.82.38-50.37-.54-75.34l.77-1.74h21.85c.37,12.59-.49,25.37-.02,37.94.03.86.51,1.62.54,2.48.45,12.49.56,25.02.57,37.6,1.27,3.01,1.01,5.94,3.41,8.65,1.09,1.23,3.48,3.15,5.24,2.72l.59,1.05c2.27-.22,4.8.21,7.02,0,1.21-.11,1.3-.61,2.1-.93.47-.19,1.17.05,1.55-.22.14-.1.04-.6.2-.74.3-.26,1.07-.2,1.67-.62,6.2-4.36,5.45-15.14,5.27-21.89-.12-4.4-.9-9.62-1.04-14.03-.53-17.3.43-34.7.02-52l23.11-.5Z"/>
      <path class="cls-1" d="M480.56,219.6l.52,2.24c-.34,24.93.61,50-.54,74.83-.19,4.09.32,5.63-.9,9.65-.45,1.48-.47,4.66-1.07,6.39l-.92.37-.08,1.62-.93.39c-.06,1.82-1.75,3.7-2.94,5.13-.5.6-2.93,3.44-3.31,3.69-1.47.98-4.36,1.59-5.22,3.18l-1.62.08-.37.92c-2.18-.06-4.6,1.31-6.57,1.9-4.2,1.25-15.62,1.75-20,1.09-.89-.13-1.43-.76-2.1-.91-.95-.21-1.97.09-2.84-.17-1.36-.4-3.32-1.27-4.73-1.8-8.66-3.21-13.96-9.82-16.61-18.55-.45-1.5-2.11-7.79-2.11-8.94v-80.1h22.11l-.02,56.02c1.29,7.07,1.01,14.34,1.03,21.57l2.26,6.78c2.88,3.52,7.43,5.9,12.07,5.55,3.75-.28,8.3-1.78,10.51-5.06,1.38-2.06,1-4.25,2.29-6.25.07-17.28.08-34.56-.49-51.75-.03-.86-.51-1.62-.54-2.48-.29-8.44.25-16.94.02-25.38h23.11Z"/>
      <path class="cls-1" d="M626.25,428.53c.18.18-.14,3.42,0,4.27.12.79.78,1.1.92,1.59.22.76-.04,1.58.18,2.33.21.71,1.26,1.47,1.02,2.77l3.02,2.96c1.33.77,2.78.86,4.06,1.24s1.89,1.33,3.53.82c.41-.13.72-.67,1.19-.82.64-.21,1.35-.04,2.15-.36,1.62-.64,4.58-4.49,4.94-6.11.27-1.21.28-5.64,0-6.85-.54-2.36-2.46-5.14-4.16-6.89s-3.94-3.02-5.76-4.29c-12.89-9.02-27.41-13.61-32.29-29.99-4.57-15.33,1.23-30.91,16.55-36.89,1.52-.59,5.96-2.02,7.39-2.15,3.33-.32,13.01-.47,16.1.01.79.12,1.1.78,1.59.92.81.24,1.65-.03,2.43.08.18.03,3.1.99,3.4,1.12,5.38,2.14,10.93,7.47,13.63,12.49,1.45,2.7,1.64,4.48,2.39,7.16.15.54.92,1.01.92,1.09v8.54c0,.05-.7.75-.75.75h-21.1c-1.15,0-1.16-2.55-1.36-3.16-.88-2.75-2.72-7.26-5.43-8.63-.54-.27-1.15-.18-1.63-.38-.59-.23-.91-.76-1.62-.89s-2.31-.11-3.03,0-1.03.68-1.62.91c-.48.19-1.17-.04-1.56.21-.13.09-.05.58-.22.73-1.65,1.43-3.49,2.36-3.87,4.95-.89,6.12,1.65,8.91,5.88,12.46,11.57,9.71,29.86,15.11,35.42,30.89l.91.38c1.73,8.18,1.83,16.45,0,24.53l-1.05.59c-.56,4.94-4.21,8.87-7.88,11.91-1.41,1.17-3.02,2.92-4.85,2.83l-.39.93-1.62.08-.4.91c-9.58,3.49-19.23,3.95-29.22,1.03-8.35-2.45-15.65-9.35-18.81-17.36-.5-1.26-2.13-6.91-2.13-7.91v-8.04c0-.05.7-.75.75-.75h22.36Z"/>
      <path class="cls-1" d="M750.09,164.36c1.37.36.44,4.39.84,5.69.13.42.67.73.81,1.2.18.57,0,1.29.21,1.8,1.22,3.03,2.59,3.63,4.78,5.55.18.16.09.67.2.75.42.28,1.4-.02,2.1.18.5.14.8.8,1.59.92,2.98.47,6.92-.91,8.8-3.27,2.03-2.55,3.16-6.21,2.42-9.46-1-4.41-4.44-8.44-7.98-11.11-11.7-8.82-28.77-14.25-34.03-29.26-1-2.84-.81-4.56-1.14-7.4-.2-1.7-1.13-3.14-1-5.06.08-1.27.75-1.74.95-2.59.49-2.18.51-4.99,1.18-7.35.29-1.01,1.63-3.79,2.2-4.84,2.98-5.51,10.13-10.06,16.15-11.98,5.22-1.66,12.3-2.96,17.98-2.1.95.14,1.59.86,2.53.99,3.69.51,5.72.84,9.25,2.3.66.27,3.58,1.61,3.93,1.87.15.11,0,.58.47.84,1.74.97,3.99,2.53,5.2,4.26.43.61.34,1.27.61,1.67.83,1.22,3.2,3.08,2.86,4.82l.91.4c-.26,1.21,2.12,5.38,2.12,5.69v9.04c0,.2-.84.88-1.26.79-1.39-.72-2.32-.06-3.5-.02-4.29.14-8.53-.41-12.6-.49-1.72-.03-3.34-.24-4.96.46-1.13-.58-.58-1.74-.88-2.65-.15-.46-.65-.74-.81-1.2-.49-1.5-.2-2.49-1.38-4.15-2.51-3.53-6.19-5.24-10.54-4.54-.73.12-1.03.68-1.62.91-.47.19-1.15-.04-1.55.22-.09.06-.97,1.4-1.28,1.72-.64.65-1.04.16-.92,2.12l-.93.36c-.3,3.81.1,7.39,2.18,10.63,1.01,1.57,4.95,4.01,6.55,5.14,9.55,6.79,21.15,11.86,29.33,21.22.91,2.67,3.15,5.17,3.94,7.89.28.99.08,1.89.32,2.7.15.5.8.81.92,1.59.35,2.2.35,11.87,0,14.07-.12.79-.78,1.1-.92,1.59-1.06,3.66-1.37,6.54-3.38,9.66-.54.84-2.51,4.11-2.84,4.46-.24.25-.87.27-1.16.58-.45.48-.62,1.21-.86,1.41-2.74,2.28-7.21,4.08-10.55,5.27-4.12,1.48-8.61,2.5-13.21,2.86-3.49.28-13.69-1.75-16.78-3.26-7.28-3.55-14.23-10.37-16.37-18.29-.37-1.35-.05-2.49-.31-3.7-.13-.62-.92-1.46-.92-1.59v-8.54c0-.05.7-.75.75-.75h21.6Z"/>
      <path class="cls-1" d="M333.61,196.5c-1.85-.5-1.11-4.29-1.24-5.79-1.88-21.81-.15-45.65-.5-67.8-.14-8.57-.71-17.51-1.04-26.08-.06-1.62-.28-6.27.07-7.5.07-.24.23-.43.42-.58.88-.59,6.64-.12,8.33-.21,6.74-.34,13.77-.97,20.6-.54,4.09.26,9.26,1.08,13.13,1.94,1.11.25,2.33-.13,3.34.18,2.05.62,5.34,2.08,7.33,3.22,3.52,2.02,6.46,5.53,8.61,8.98.36.58.38,1.38.62,1.66.15.17.64.07.74.21.57.81,1.81,5.79,2.23,7.09,2.05,6.45,2.58,14.17,1.94,21.22-.12,1.28-.75,1.42-.94,2.07-.45,1.48-.47,4.66-1.07,6.39l-1.03.62c.2,2.66-1.77,4.26-2.87,5.82-.4.57-.61,1.82-1.32,2.75-1.3,1.71-3.11,2.15-4.53,3.15-.37.26-.28.77-.43.88-.57.41-5.98,2.83-6.76,3.06s-1.58-.04-2.33.18c-.49.14-.8.8-1.59.92-4.43.7-10.37.65-15.06,1.02-1.25.1-5.52-.54-5.78.77.14.67.47,1.25.51,1.96.42,7.95-.76,16.87-.04,24.64.13,1.38.84,2.74.99,4.03.21,1.85-.09,3.88.03,5.75h-22.36ZM353.96,139.24h13.82c1.14-1.13,2.79-1.42,4.02-2.51,1.03-.91,2.73-3.61,3.15-4.88,1.51-4.61.93-11.26-.77-15.58-.19-.48-.11-1.08-.38-1.63-.35-.7-2.81-3.56-3.49-4.04-1.52-1.09-2.91-1.13-4.45-1.58-.58-.17-1.03-.91-1.1-.91h-10.8v31.14Z"/>
      <path class="cls-1" d="M593.1,159.33c-.34,3.43-.29,6.86-.48,10.31-.05.87-.5,1.62-.54,2.48-.34,7.93.48,15.97-.21,23.9-.4.54-.94.45-1.51.5-4.52.35-12.76.23-17.01-1.11-.86-.27-3.06-2.83-3.26-3.77.39-28.91-.83-57.92-.11-86.82.03-1.14.51-2.01.54-2.97.12-3.66-.42-8.04,0-11.55.05-.42.42-1.75.78-1.8,4.17-.07,8.36.17,12.53.04,5.27-.16,10.7-.9,16.08-.54,1.96.13,4.11.9,5.99,1.04,3.47.27,4.14-.13,7.64.9.92.27,1.92-.1,2.84.17,1.65.49,3.57,1.57,5.18,2.36,6.38,3.14,10.58,8.4,12.86,15.26.47,1.41,1.38,3.36,1.8,4.73.35,1.15-.08,2.68.1,3.92.13.94.85,1.58.99,2.53,1.29,8.51-1.44,19.42-4.12,27.28-1.35.15-1.33,1.91-2.06,2.97-.35.51-4.44,4.2-5.1,4.68-.8.59-2.58,1.62-3.47,1.46l-.64,1.03c-3.03.96-5.25,1.58-8.44,2.03-.84.12-2.36.98-2.53.98h-17.83ZM593.09,108.61l-.78,30.16c.58.87,3.91.4,5.07.46,1.94.09,2.62.05,4.49,0,2.96-.08,5.14.52,7.78-1.26,1.71-1.15,3.79-4.25,4.32-6.23.25-.94,1.2-6.47,1.21-7.31.01-1.5-1.75-4.71-1.07-6.93-1.43-2.38-1.67-5.24-4.24-6.81-.4-.24-3.14-1.52-3.45-1.57-1.4-.24-4.92-.44-6.52-.52-2.25-.11-4.55.11-6.8.02Z"/>
      <path class="cls-1" d="M860.37,89.02v20.09l-32.15.5v23.6h28.13v19.34c-.35.48-.65.68-1.24.77-1.65.23-4.77.09-6.56,0-.87-.04-1.62-.51-2.48-.54-5.61-.17-11.34.51-16.85-.48v25.11h32.15v15.32c0,.07-.42.51-.5,1.01-.2,1.31.46,2.63-1,3.52-7.7.31-15.74.82-23.35-.78l-29.41.02c-.14-3.75.19-7.56.02-11.32-.14-3.07-.91-6.94-1.04-10.01-1.16-26.99,1.25-54.94.04-81.9-.07-1.53-1.36-3.46.72-3.76l53.52-.49Z"/>
      <path class="cls-1" d="M389.12,352.19v19.84c0,.05-.7.75-.75.75h-33.41v25.61h28.13v17.33c0,.24,1.38.85,1,1.76l-28.9.99-1.24.77v41.94l-20.86-.49-1.24-.77c.32-1.13.91-1.7,1.03-2.99,1.37-14.93-.5-32.76-1.05-47.71,1.17-17.73-1.48-37.28,0-54.78.07-.84.45-1.45.52-2.24h56.77Z"/>
      <path class="cls-1" d="M645.34,219.6v21.09h-22.11l-.02,71.08c1.41,5.68.98,11.5,1.02,17.31h-23.11l.02-74.1c-.57-3.31-.67-6.67-1.04-10.01-.16-1.46.6-3.28-.74-4.29h-21.35v-21.09h67.32Z"/>
      <path class="cls-1" d="M458.45,352.19v89.9l32.15-.5c-.08,3.19.7,6.07.52,9.31-.06,1.13-.49,2.01-.54,2.97-.12,2.42.12,4.88.02,7.3h-53c-.48-.35-.68-.65-.77-1.24-.33-2.36.15-5.55.03-8.07-.58-12.34-.59-24.81-1-37.16-.61-18.1-1.03-36.61,0-54.71.12-2.07-.3-4.61-.03-6.56.08-.6.29-.9.77-1.24h21.85Z"/>
      <path class="cls-1" d="M554.91,219.6v89.65l1.24.77c6.03-.2,12.1.21,18.12,0,2.63-.09,5.34-.39,8.03-.51,1.97-.09,4.55-1.23,5.76.74v18.83h-54.01c-.09,0-1.26-1.17-1.26-1.26v-108.23h22.11Z"/>
      <path class="cls-1" d="M421.28,353.19l-.02,90.17c.04,1.82.89,3.72,1.04,5.49.16,1.87.32,10.17-.07,11.51-.07.24-.23.43-.42.58-.67.45-8.75.3-10.34.24-3.29-.12-6.78-.51-10.03-.49-.69,0-1.42.69-2.26.47v-107.22c0-.05.7-.75.75-.75h21.35Z"/>
      <path class="cls-1" d="M516.73,220.6c.12,9.62-.15,19.27-.02,28.9.02,1.71.52,4.25.54,5.99.3,23-.14,45.99,1.51,68.8.07.94.16,3.24-.07,3.98-.41,1.37-1.75.33-2.69.28-2.54-.13-5.06-.36-7.54-.5-4.83-.26-9.54,1.34-12.83-3.25v-104.21h21.1Z"/>
    </g>
  </g>
</svg>